<?xml version="1.0" encoding="UTF-8" standalone="no"?>
<!DOCTYPE svg PUBLIC "-//W3C//DTD SVG 1.1//EN" "http://www.w3.org/Graphics/SVG/1.1/DTD/svg11.dtd">
<svg width="100%" height="100%" viewBox="0 0 72 72" version="1.1" xmlns="http://www.w3.org/2000/svg" xmlns:xlink="http://www.w3.org/1999/xlink" xml:space="preserve" xmlns:serif="http://www.serif.com/" style="fill-rule:evenodd;clip-rule:evenodd;stroke-linejoin:round;stroke-miterlimit:2;">
    <rect x="0" y="0" width="72" height="72" style="fill:rgb(0,63,122);"/>
    <g id="chords.svg" transform="matrix(0.0412371,0,0,0.0412371,36,29.2133)">
        <g transform="matrix(1,0,0,1,-485,-480)">
            <g transform="matrix(1,0,0,1,10,0)">
                <path d="M364.5,898.5C348.167,885.5 340,867.667 340,845C340,822.333 348.167,797.667 364.5,771C380.833,744.333 405.333,724.333 438,711L426,712C401.333,712 380.833,705.5 364.5,692.5C348.167,679.5 340,661.667 340,639C340,616.333 348.167,591.667 364.5,565C380.833,538.333 405.333,518.333 438,505L426,506C401.333,506 380.833,499.5 364.5,486.5C348.167,473.5 340,455.667 340,433C340,414.333 345.833,393.667 357.5,371C369.167,348.333 388,328.5 414,311.5C440,294.5 473,286 513,286C540.333,286 562.667,294 580,310L580,60C580,54.667 582,50 586,46C590,42 594.667,40 600,40C605.333,40 610,42 614,46C618,50 620,54.667 620,60L620,778C620,791.333 613.167,809.167 599.5,831.5C585.833,853.833 564.5,873.833 535.5,891.5C506.5,909.167 470,918 426,918C401.333,918 380.833,911.5 364.5,898.5ZM367.5,855C368.5,858.333 369.667,861.333 371,864C379.667,878 391.333,885 406,885C419.333,885 439.667,877.833 467,863.5C494.333,849.167 518.667,832.833 540,814.5C561.333,796.167 572,781 572,769C572,763 570.333,757.667 567,753C560.333,740.333 549.667,734 535,734C521,734 500.167,740.667 472.5,754C444.833,767.333 420.167,782.667 398.5,800C376.833,817.333 366,832.667 366,846C366,848.667 366.5,851.667 367.5,855ZM367.5,649C368.5,652.333 369.667,655.333 371,658C379.667,672 391.333,679 406,679C419.333,679 439.667,671.833 467,657.5C494.333,643.167 518.667,626.833 540,608.5C561.333,590.167 572,575 572,563C572,557 570.333,551.667 567,547C560.333,534.333 549.667,528 535,528C521,528 500.167,534.5 472.5,547.5C444.833,560.5 420.167,575.833 398.5,593.5C376.833,611.167 366,626.667 366,640C366,642.667 366.5,645.667 367.5,649ZM367.5,443C368.5,446.333 369.667,449.333 371,452C379.667,466 391.333,473 406,473C419.333,473 439.667,465.833 467,451.5C494.333,437.167 518.667,420.833 540,402.5C561.333,384.167 572,369 572,357C572,351 570.333,345.667 567,341C560.333,328.333 549.667,322 535,322C521,322 500.167,328.5 472.5,341.5C444.833,354.5 420.167,369.833 398.5,387.5C376.833,405.167 366,420.667 366,434C366,436.667 366.5,439.667 367.5,443ZM580,718L580,630C561.333,662.667 535.333,685.333 502,698L513,698C537,698 559.333,704.667 580,718ZM580,516L580,424C561.333,456.667 535.333,479.333 502,492L513,492C540.333,492 562.667,500 580,516Z" style="fill:white;fill-rule:nonzero;"/>
            </g>
        </g>
    </g>
    <g transform="matrix(1,0,0,1,22.554,61.228)">
        <text x="0px" y="0px" style="font-family:'SourceSansPro-Regular', 'Source Sans Pro', sans-serif;font-size:9px;fill:white;">Chords</text>
    </g>
</svg>
