<?xml version="1.0" encoding="UTF-8" standalone="no"?>
<!DOCTYPE svg PUBLIC "-//W3C//DTD SVG 1.1//EN" "http://www.w3.org/Graphics/SVG/1.1/DTD/svg11.dtd">
<svg width="100%" height="100%" viewBox="0 0 72 72" version="1.1" xmlns="http://www.w3.org/2000/svg" xmlns:xlink="http://www.w3.org/1999/xlink" xml:space="preserve" xmlns:serif="http://www.serif.com/" style="fill-rule:evenodd;clip-rule:evenodd;stroke-linejoin:round;stroke-miterlimit:2;">
    <rect x="0" y="0" width="72" height="72" style="fill:rgb(0,63,122);"/>
    <g id="diatonic-down.svg" transform="matrix(0.0309278,0,0,0.0309278,36,27.9587)">
        <g transform="matrix(1,0,0,1,-485,-480)">
            <g transform="matrix(1,0,0,1,10,0)">
                <path d="M500,730C500,722.667 502,716.667 506,712C512,704 520,700 530,700C537.333,700 543.333,702 548,706L660,790L660,435C639.333,429 622.5,417.333 609.5,400C596.5,382.667 590,362.667 590,340C590,312.667 599.833,289.167 619.5,269.5C639.167,249.833 662.667,240 690,240C717.333,240 740.833,249.833 760.5,269.5C780.167,289.167 790,312.667 790,340C790,362.667 783.5,382.667 770.5,400C757.5,417.333 740.667,429 720,435L720,790L832,706C837.333,702 843.333,700 850,700C860,700 868,704 874,712C878,716.667 880,722.667 880,730C880,740 876,748 868,754L708,874C703.333,878 697.333,880 690,880C684,880 678,878 672,874L512,754C504,748 500,740 500,730ZM102,587C116.667,565.667 137.333,547.333 164,532C192.667,517.333 225.667,510 263,510C277.667,510 290,512.667 300,518L300,102C300,96 302.167,90.833 306.5,86.5C310.833,82.167 316,80 322,80C328,80 333.167,82.167 337.5,86.5C341.833,90.833 344,96 344,102L344,588C344,600.667 340,616.667 332,636L328,645C316.667,667.667 297.667,687.333 271,704C243.667,721.333 209,730 167,730C139,729.333 117.333,721.667 102,707C87.333,692.333 80,674.667 80,654C80,632 87.333,609.667 102,587Z" style="fill:white;fill-rule:nonzero;"/>
            </g>
        </g>
    </g>
    <g transform="matrix(1,0,0,1,8.559,61.228)">
        <text x="0px" y="0px" style="font-family:'SourceSansPro-Regular', 'Source Sans Pro', sans-serif;font-size:9px;fill:white;">Dia<tspan x="12.159px 15.075px " y="0px 0px ">to</tspan>nic Down</text>
    </g>
</svg>
