<?xml version="1.0" encoding="UTF-8" standalone="no"?>
<!DOCTYPE svg PUBLIC "-//W3C//DTD SVG 1.1//EN" "http://www.w3.org/Graphics/SVG/1.1/DTD/svg11.dtd">
<svg width="100%" height="100%" viewBox="0 0 72 72" version="1.1" xmlns="http://www.w3.org/2000/svg" xmlns:xlink="http://www.w3.org/1999/xlink" xml:space="preserve" xmlns:serif="http://www.serif.com/" style="fill-rule:evenodd;clip-rule:evenodd;stroke-linejoin:round;stroke-miterlimit:2;">
    <rect x="0" y="0" width="72" height="72" style="fill:rgb(0,63,122);"/>
    <g id="diatonic-down.svg">
    </g>
    <g transform="matrix(0.0313283,0,0,0.0313283,21.0251,13.12)">
        <path d="M617,691C597.667,671.667 588,648.333 588,621C588,598.333 594.5,578.333 607.5,561C620.5,543.667 637.333,532 658,526L658,172L546,256C541.333,260 535.333,262 528,262C518,262 510,258 504,250C500,244.667 498,238.667 498,232C498,222 502,214 510,208L670,88C676,84 682,82 688,82C694.667,82 700.333,84 705,88L865,208C873,214 877,222 877,232C877,238.667 875,244.667 871,250C865,258 857,262 847,262C840.333,262 834.333,260 829,256L717,172L717,526C737.667,532 754.5,543.667 767.5,561C780.5,578.333 787,598.333 787,621C787,648.333 777.167,671.667 757.5,691C737.833,710.333 714.333,720 687,720C659.667,720 636.333,710.333 617,691ZM101,737C115.667,715.667 136.333,697.333 163,682C192.333,668 225.333,661 262,661C276,661 288,663.667 298,669L298,254C298,248 300.167,242.833 304.5,238.5C308.833,234.167 314,232 320,232C326,232 331.167,234.167 335.5,238.5C339.833,242.833 342,248 342,254L342,738C342,750.667 338,766.667 330,786L326,795C314.667,817 296,836.667 270,854C242.667,871.333 208,880 166,880C138,879.333 116.333,871.667 101,857C86.333,842.333 79,824.667 79,804C79,782 86.333,759.667 101,737Z" style="fill:white;fill-rule:nonzero;"/>
    </g>
    <g transform="matrix(1,0,0,1,13.914,61.228)">
        <g>
            <text x="0px" y="0px" style="font-family:'SourceSansPro-Regular', 'Source Sans Pro', sans-serif;font-size:9px;fill:white;">Dia<tspan x="12.159px 15.075px " y="0px 0px ">to</tspan>nic Up</text>
        </g>
    </g>
</svg>
