<?xml version="1.0" encoding="UTF-8" standalone="no"?>
<!DOCTYPE svg PUBLIC "-//W3C//DTD SVG 1.1//EN" "http://www.w3.org/Graphics/SVG/1.1/DTD/svg11.dtd">
<svg width="100%" height="100%" viewBox="0 0 72 72" version="1.1" xmlns="http://www.w3.org/2000/svg" xmlns:xlink="http://www.w3.org/1999/xlink" xml:space="preserve" xmlns:serif="http://www.serif.com/" style="fill-rule:evenodd;clip-rule:evenodd;stroke-linejoin:round;stroke-miterlimit:2;">
    <rect x="0" y="0" width="72" height="72" style="fill:rgb(0,63,122);"/>
    <g id="octave-up.svg" transform="matrix(0.037232,0,0,0.037232,36,29.0392)">
        <g transform="matrix(1,0,0,1,-485,-480)">
            <g transform="matrix(1,0,0,1,10,0)">
                <path d="M617.5,691.5C597.833,671.833 588,648.333 588,621C588,598.333 594.5,578.333 607.5,561C620.5,543.667 637.333,532 658,526L658,171L546,255C541.333,259 535.333,261 528,261C518,261 510,257 504,249C500,243.667 498,237.667 498,231C498,221 502,213 510,207L670,87C676,83 682,81 688,81C695.333,81 701.333,83 706,87L866,207C874,213 878,221 878,231C878,237.667 876,243.667 872,249C866,257 858,261 848,261C841.333,261 835.333,259 830,255L718,171L718,526C738.667,532 755.5,543.667 768.5,561C781.5,578.333 788,598.333 788,621C788,648.333 778.167,671.833 758.5,691.5C738.833,711.167 715.333,721 688,721C660.667,721 637.167,711.167 617.5,691.5ZM101.5,675.5C117.167,653.167 141.667,635.333 175,622C181.667,618.667 186.667,615.833 190,613.5C193.333,611.167 195,608.667 195,606C195,601.333 192,596 186,590C168.667,568.667 160,542 160,510C160,464 177.5,427.667 212.5,401C247.5,374.333 293.667,361 351,361C402.333,361 440.333,371.667 465,393C489.667,414.333 502,442 502,476C502,497.333 495.167,518.333 481.5,539C467.833,559.667 447.333,577.667 420,593C407.333,597.667 401,602.667 401,608C401,610.667 402.333,613.667 405,617C407.667,620.333 411,624 415,628C427,641.333 435.833,655.833 441.5,671.5C447.167,687.167 450,705 450,725C450,757 440.833,784.833 422.5,808.5C404.167,832.167 379.667,850.167 349,862.5C318.333,874.833 285,881 249,881C192.333,881 149.667,869 121,845C92.333,821 78,789.667 78,751C78,723 85.833,697.833 101.5,675.5ZM184.5,823C198.167,839.667 220.333,848 251,848C277.667,848 300,840.167 318,824.5C336,808.833 345,787.333 345,760C345,744 339.5,730 328.5,718C317.5,706 293.667,685.667 257,657C249,649.667 242,646 236,646C234,646 230.333,647.333 225,650C203.667,663.333 188.167,680.5 178.5,701.5C168.833,722.5 164,743 164,763C164,786.333 170.833,806.333 184.5,823ZM279,513C289,525.667 307,541.667 333,561L343.5,568C376.5,592 379.333,593 352,571C356.667,571 361.333,569.333 366,566C383.333,554 396.5,539.167 405.5,521.5C414.5,503.833 419,485.333 419,466C419,445.333 413.333,428.167 402,414.5C390.667,400.833 372.667,394 348,394C323.333,394 303.167,401 287.5,415C271.833,429 264,447.667 264,471C264,486.333 269,500.333 279,513Z" style="fill:white;fill-rule:nonzero;"/>
            </g>
        </g>
    </g>
    <g transform="matrix(1,0,0,1,16.677,61.012)">
        <g>
            <g>
                <text x="0px" y="0px" style="font-family:'SourceSansPro-Regular', 'Source Sans Pro', sans-serif;font-size:9px;fill:white;">Oct<tspan x="12.843px " y="0px ">a</tspan>ve Up</text>
            </g>
        </g>
    </g>
</svg>
