<?xml version="1.0" encoding="UTF-8" standalone="no"?>
<!DOCTYPE svg PUBLIC "-//W3C//DTD SVG 1.1//EN" "http://www.w3.org/Graphics/SVG/1.1/DTD/svg11.dtd">
<svg width="100%" height="100%" viewBox="0 0 72 72" version="1.1" xmlns="http://www.w3.org/2000/svg" xmlns:xlink="http://www.w3.org/1999/xlink" xml:space="preserve" xmlns:serif="http://www.serif.com/" style="fill-rule:evenodd;clip-rule:evenodd;stroke-linejoin:round;stroke-miterlimit:2;">
    <rect x="0" y="0" width="72" height="72" style="fill:rgb(0,63,122);"/>
    <g id="octave-down.svg" transform="matrix(0.0287672,0,0,0.0287672,36,29.0096)">
        <g transform="matrix(1,0,0,1,-485,-480)">
            <g transform="matrix(1,0,0,1,10,0)">
                <path d="M498,729C498,721.667 500,715.667 504,711C510,703 518,699 528,699C535.333,699 541.333,701 546,705L658,789L658,434C637.333,428 620.5,416.333 607.5,399C594.5,381.667 588,361.667 588,339C588,311.667 597.833,288.167 617.5,268.5C637.167,248.833 660.667,239 688,239C715.333,239 738.833,248.833 758.5,268.5C778.167,288.167 788,311.667 788,339C788,361.667 781.5,381.667 768.5,399C755.5,416.333 738.667,428 718,434L718,789L830,705C835.333,701 841.333,699 848,699C858,699 866,703 872,711C876,715.667 878,721.667 878,729C878,739 874,747 866,753L706,873C701.333,877 695.333,879 688,879C682,879 676,877 670,873L510,753C502,747 498,739 498,729ZM101.5,393.5C117.167,371.167 141.667,353.333 175,340C181.667,336.667 186.667,333.833 190,331.5C193.333,329.167 195,326.667 195,324C195,319.333 192,314 186,308C168.667,286.667 160,260 160,228C160,182 177.5,145.667 212.5,119C247.5,92.333 293.667,79 351,79C402.333,79 440.333,89.667 465,111C489.667,132.333 502,160 502,194C502,215.333 495.167,236.333 481.5,257C467.833,277.667 447.333,295.667 420,311C407.333,315.667 401,320.667 401,326C401,328.667 402.333,331.667 405,335C407.667,338.333 411,342 415,346C427,359.333 435.833,373.833 441.5,389.5C447.167,405.167 450,423 450,443C450,475 440.833,502.833 422.5,526.5C404.167,550.167 379.667,568.167 349,580.5C318.333,592.833 285,599 249,599C192.333,599 149.667,587 121,563C92.333,539 78,507.667 78,469C78,441 85.833,415.833 101.5,393.5ZM184.5,541C198.167,557.667 220.333,566 251,566C277.667,566 300,558.167 318,542.5C336,526.833 345,505.333 345,478C345,462 339.5,448 328.5,436C317.5,424 293.667,403.667 257,375C249,367.667 242,364 236,364C234,364 230.333,365.333 225,368C203.667,381.333 188.167,398.5 178.5,419.5C168.833,440.5 164,461 164,481C164,504.333 170.833,524.333 184.5,541ZM279,231C289,243.667 307,259.667 333,279L343.5,286C376.5,310 379.333,311 352,289C356.667,289 361.333,287.333 366,284C383.333,272 396.5,257.167 405.5,239.5C414.5,221.833 419,203.333 419,184C419,163.333 413.333,146.167 402,132.5C390.667,118.833 372.667,112 348,112C323.333,112 303.167,119 287.5,133C271.833,147 264,165.667 264,189C264,204.333 269,218.333 279,231Z" style="fill:white;fill-rule:nonzero;"/>
            </g>
        </g>
    </g>
    <g transform="matrix(1,0,0,1,11.322,61.012)">
        <g>
            <g>
                <text x="0px" y="0px" style="font-family:'SourceSansPro-Regular', 'Source Sans Pro', sans-serif;font-size:9px;fill:white;">Oct<tspan x="12.843px " y="0px ">a</tspan>ve Down</text>
            </g>
        </g>
    </g>
</svg>
