<?xml version="1.0" encoding="UTF-8" standalone="no"?>
<!DOCTYPE svg PUBLIC "-//W3C//DTD SVG 1.1//EN" "http://www.w3.org/Graphics/SVG/1.1/DTD/svg11.dtd">
<svg width="100%" height="100%" viewBox="0 0 72 72" version="1.1" xmlns="http://www.w3.org/2000/svg" xmlns:xlink="http://www.w3.org/1999/xlink" xml:space="preserve" xmlns:serif="http://www.serif.com/" style="fill-rule:evenodd;clip-rule:evenodd;stroke-linejoin:round;stroke-miterlimit:2;">
    <rect x="0" y="0" width="72" height="72" style="fill:rgb(0,63,122);"/>
    <g id="slur.svg" transform="matrix(0.0412371,0,0,0.0412371,36,28.7969)">
        <g transform="matrix(1,0,0,1,-485,-480)">
            <g transform="matrix(1,0,0,1,10,0)">
                <path d="M91,621C89,621 86.333,619.333 83,616C80.333,612 79,608 79,604C79,601.333 79.667,598.667 81,596L84,588L86,583L88,579L91,571L95,563L97,560L99,556L104,548L108,541L111,536L113,534C123.667,518 137,502 153,486C163.667,474 178.667,461 198,447C210.667,437 226.333,426.667 245,416C273,399.333 306,384.333 344,371C377.333,360.333 412,352 448,346C480.667,341.333 516.333,339 555,339C593,340.333 629,344.667 663,352C684.333,356.667 702.667,362 718,368C734,373.333 752,381 772,391C793.333,403 811,414.667 825,426L826,427L831,431L838,436L856,454L862,461L865,464L868,468L874,475C876.667,480.333 878,484.667 878,488C878,490.667 877.333,493.333 876,496C874.667,498.667 872.833,500.167 870.5,500.5C868.167,500.833 866,500.333 864,499L858,493L855,491L846,483L834,475L818,464L816,463C798.667,453.667 782,446 766,440C732,428 698,420 664,416C642.667,412.667 616,411 584,411C542.667,411 501.333,414 460,420C424.667,425.333 391.333,432.667 360,442C328.667,450.667 296.667,462.333 264,477C228.667,493.667 198.333,512 173,532C159,542.667 145.667,555 133,569L132,570L126,577L124,579L119,585L115,591L110,597L102,609L98,617C95.333,619.667 93,621 91,621Z" style="fill:white;fill-rule:nonzero;"/>
            </g>
        </g>
    </g>
    <g transform="matrix(1,0,0,1,28.2375,61.408)">
        <text x="0px" y="0px" style="font-family:'SourceSansPro-Regular', 'Source Sans Pro', sans-serif;font-size:9px;fill:white;">Slur</text>
    </g>
</svg>
