<?xml version="1.0" encoding="UTF-8" standalone="no"?>
<!DOCTYPE svg PUBLIC "-//W3C//DTD SVG 1.1//EN" "http://www.w3.org/Graphics/SVG/1.1/DTD/svg11.dtd">
<svg width="100%" height="100%" viewBox="0 0 72 72" version="1.1" xmlns="http://www.w3.org/2000/svg" xmlns:xlink="http://www.w3.org/1999/xlink" xml:space="preserve" xmlns:serif="http://www.serif.com/" style="fill-rule:evenodd;clip-rule:evenodd;stroke-linejoin:round;stroke-miterlimit:2;">
    <rect x="0" y="0" width="72" height="72" style="fill:rgb(0,63,122);"/>
    <g id="start-note-input.svg" transform="matrix(0.0412371,0,0,0.0412371,36,28.2898)">
        <g transform="matrix(1,0,0,1,-485,-480)">
            <g transform="matrix(1,0,0,1,10,0)">
                <path d="M142,717C127.333,702.333 120,684.667 120,664C120,642 127.333,619.667 142,597C156.667,575.667 177.333,557.333 204,542C232.667,527.333 266,520 304,520C318,520 330,522.667 340,528L340,100C340,94.667 342,90 346,86C350,82 354.667,80 360,80L379,80C382.333,80 385.333,80.667 388,82L549,164C556.333,167.333 560,173 560,181L560,254C560,260 558,264.833 554,268.5C550,272.167 545.333,274 540,274C536,274 533,273.333 531,272L413,213C409,211.667 406,211 404,211C398.667,211 394,212.833 390,216.5C386,220.167 384,225 384,231L384,598C384,610.667 380,626.667 372,646L368,655C356.667,677.667 337.667,697.333 311,714C283.667,731.333 249,740 207,740C179,739.333 157.333,731.667 142,717ZM537.5,577.5C549.167,565.833 563.333,560 580,560L780,560C796.667,560 810.833,565.833 822.5,577.5C834.167,589.167 840,603.333 840,620L840,820C840,836.667 834.167,850.833 822.5,862.5C810.833,874.167 796.667,880 780,880L580,880C563.333,880 549.167,874.167 537.5,862.5C525.833,850.833 520,836.667 520,820L520,620C520,603.333 525.833,589.167 537.5,577.5ZM562.5,737.5C567.5,742.5 573.333,745 580,745L655,745L655,820C655,826.667 657.5,832.5 662.5,837.5C667.5,842.5 673.333,845 680,845C687.333,845 693.333,842.5 698,837.5C702.667,832.5 705,826.667 705,820L705,745L780,745C787.333,745 793.333,742.5 798,737.5C802.667,732.5 805,726.667 805,720C805,712.667 802.667,706.667 798,702C793.333,697.333 787.333,695 780,695L705,695L705,620C705,612.667 702.667,606.667 698,602C693.333,597.333 687.333,595 680,595C673.333,595 667.5,597.333 662.5,602C657.5,606.667 655,612.667 655,620L655,695L580,695C573.333,695 567.5,697.333 562.5,702C557.5,706.667 555,712.667 555,720C555,726.667 557.5,732.5 562.5,737.5Z" style="fill:white;fill-rule:nonzero;"/>
            </g>
        </g>
    </g>
    <g transform="matrix(1,0,0,1,15.678,61.228)">
        <text x="0px" y="0px" style="font-family:'SourceSansPro-Regular', 'Source Sans Pro', sans-serif;font-size:9px;fill:white;">No<tspan x="10.548px 13.464px " y="0px 0px ">te</tspan> Input</text>
    </g>
</svg>
