<?xml version="1.0" encoding="UTF-8" standalone="no"?>
<!DOCTYPE svg PUBLIC "-//W3C//DTD SVG 1.1//EN" "http://www.w3.org/Graphics/SVG/1.1/DTD/svg11.dtd">
<svg width="100%" height="100%" viewBox="0 0 72 72" version="1.1" xmlns="http://www.w3.org/2000/svg" xmlns:xlink="http://www.w3.org/1999/xlink" xml:space="preserve" xmlns:serif="http://www.serif.com/" style="fill-rule:evenodd;clip-rule:evenodd;stroke-linejoin:round;stroke-miterlimit:2;">
    <rect x="0" y="0" width="72" height="72" style="fill:rgb(0,63,122);"/>
    <g id="tie.svg" transform="matrix(0.0466354,0,0,0.0466354,36,32.615)">
        <g transform="matrix(1,0,0,1,-485,-480)">
            <g transform="matrix(1,0,0,1,10,0)">
                <path d="M619,644.5C606.333,634.167 600,620.333 600,603C600,573 611.667,547 635,525C658.333,503 688,491.667 724,491C730,491 736.833,492.167 744.5,494.5C752.167,496.833 757.333,499.667 760,503L760,140C760,134.667 762,130 766,126C770,122 774.667,120 780,120C785.333,120 790,122 794,126C798,130 800,134.667 800,140L800,546C800,564 793.167,582 779.5,600C765.833,618 748.5,632.5 727.5,643.5C706.5,654.5 686,660 666,660C647.333,660 631.667,654.833 619,644.5ZM195,525C218.333,503 248,491.667 284,491C290,491 296.833,492.167 304.5,494.5C312.167,496.833 317.333,499.667 320,503L320,140C320,134.667 322,130 326,126C330,122 334.667,120 340,120C345.333,120 350,122 354,126C358,130 360,134.667 360,140L360,546C360,564 353.167,582 339.5,600C325.833,618 308.5,632.5 287.5,643.5C266.5,654.5 246,660 226,660C207.333,660 191.667,654.833 179,644.5C166.333,634.167 160,620.333 160,603C160,573 171.667,547 195,525ZM240,710C247.333,710 253.333,712 258,716C290,740 324.833,758.333 362.5,771C400.167,783.667 439.333,790 480,790C520.667,790 559.833,783.667 597.5,771C635.167,758.333 670,740 702,716C707.333,712 713.333,710 720,710C730,710 738,714 744,722C748,726.667 750,732.667 750,740C750,750 746,758 738,764C700.667,792 660.667,813 618,827C573.333,842.333 527.333,850 480,850C432.667,850 386.667,842.333 342,827C299.333,813 259.333,792 222,764C214,758 210,750 210,740C210,732.667 212,726.667 216,722C222,714 230,710 240,710Z" style="fill:white;fill-rule:nonzero;"/>
            </g>
        </g>
    </g>
    <g transform="matrix(1,0,0,1,30.294,61.228)">
        <g>
            <text x="0px" y="0px" style="font-family:'SourceSansPro-Regular', 'Source Sans Pro', sans-serif;font-size:9px;fill:white;">Tie</text>
        </g>
    </g>
</svg>
