<?xml version="1.0" encoding="UTF-8" standalone="no"?>
<!DOCTYPE svg PUBLIC "-//W3C//DTD SVG 1.1//EN" "http://www.w3.org/Graphics/SVG/1.1/DTD/svg11.dtd">
<svg width="100%" height="100%" viewBox="0 0 72 72" version="1.1" xmlns="http://www.w3.org/2000/svg" xmlns:xlink="http://www.w3.org/1999/xlink" xml:space="preserve" xmlns:serif="http://www.serif.com/" style="fill-rule:evenodd;clip-rule:evenodd;stroke-linejoin:round;stroke-miterlimit:2;">
    <rect x="0" y="0" width="72" height="72" style="fill:rgb(0,63,122);"/>
    <g transform="matrix(3.20154,0,0,3.20154,32.7728,30.4998)">
        <g id="tuplet.svg" transform="matrix(0.0122485,0,0,0.0122485,1.00801,-0.411528)">
            <g transform="matrix(1,0,0,1,-490,-480)">
                <g transform="matrix(1,0,0,1,10,0)">
                    <path d="M586,730.5C576.667,724.167 572,715 572,703C572,695 574.667,688.667 580,684C585.333,679.333 592.333,677 601,677L615,677C632.333,677 645,668.333 653,651L657,641L565,397C561.667,388.333 560,380.667 560,374C560,363.333 564,354.5 572,347.5C580,340.5 589.667,337 601,337C611.667,337 620,339.5 626,344.5C632,349.5 636.333,357.667 639,369L702,570L703,570L766,369C769.333,357.667 774,349.5 780,344.5C786,339.5 794,337 804,337C815.333,337 824.667,340.333 832,347C839.333,353.667 843,362.333 843,373C843,380.333 841.333,388 838,396L750,638C736.667,675.333 720.5,701.667 701.5,717C682.5,732.333 657.333,740 626,740C608.667,740 595.333,736.833 586,730.5ZM4.5,469.5C7.5,466.5 11,465 15,465L120,465C124,465 127.5,466.5 130.5,469.5C133.5,472.5 135,476 135,480C135,484 133.5,487.5 130.5,490.5C127.5,493.5 124,495 120,495L30,495L30,640C30,644 28.5,647.5 25.5,650.5C22.5,653.5 19,655 15,655C11,655 7.5,653.5 4.5,650.5C1.5,647.5 0,644 0,640L0,480C0,476 1.5,472.5 4.5,469.5ZM134,579L202,489L135,397C129,389 126,380.667 126,372C126,362 129.667,353.667 137,347C144.333,340.333 153.333,337 164,337C172,337 178.5,338.667 183.5,342C188.5,345.333 193.667,351.333 199,360L253,441L254,441L307,360C313,351.333 318.333,345.333 323,342C327.667,338.667 333.667,337 341,337C351.667,337 360.5,340.167 367.5,346.5C374.5,352.833 378,361 378,371C378,381 374.333,390 367,398L301,487L368,579C374,587 377,595.333 377,604C377,614.667 373.5,623 366.5,629C359.5,635 350.333,638 339,638C331.667,638 325.833,636.5 321.5,633.5C317.167,630.5 312.667,625.667 308,619L250,532L249,532L192,617C186.667,625 181.667,630.5 177,633.5C172.333,636.5 166.333,638 159,638C149,638 140.667,635 134,629C127.333,623 124,615.333 124,606C124,597.333 127.333,588.333 134,579ZM443.5,561.5C451.833,553.167 462,549 474,549C486,549 496.333,553.167 505,561.5C513.667,569.833 518,580.333 518,593C518,605 513.667,615.167 505,623.5C496.333,631.833 486,636 474,636C462,636 451.833,631.833 443.5,623.5C435.167,615.167 431,605 431,593C431,580.333 435.167,569.833 443.5,561.5ZM443.5,368.5C451.833,360.167 462,356 474,356C486,356 496.333,360.167 505,368.5C513.667,376.833 518,387.333 518,400C518,412 513.667,422.167 505,430.5C496.333,438.833 486,443 474,443C462,443 451.833,438.833 443.5,430.5C435.167,422.167 431,412 431,400C431,387.333 435.167,376.833 443.5,368.5ZM829.5,469.5C832.5,466.5 836,465 840,465L945,465C949,465 952.5,466.5 955.5,469.5C958.5,472.5 960,476 960,480L960,640C960,644 958.5,647.5 955.5,650.5C952.5,653.5 949,655 945,655C941,655 937.5,653.5 934.5,650.5C931.5,647.5 930,644 930,640L930,495L840,495C836,495 832.5,493.5 829.5,490.5C826.5,487.5 825,484 825,480C825,476 826.5,472.5 829.5,469.5Z" style="fill:white;fill-rule:nonzero;"/>
                </g>
            </g>
            <g>
            </g>
        </g>
    </g>
    <g transform="matrix(1,0,0,1,1.275,1.26839)">
        <g transform="matrix(1,0,0,1,-14.8969,4.106)">
            <text x="37.548px" y="56.034px" style="font-family:'SourceSansPro-Regular', 'Source Sans Pro', sans-serif;font-size:9px;fill:white;">T<tspan x="41.958px " y="56.034px ">u</tspan>plet</text>
        </g>
    </g>
</svg>
