<?xml version="1.0" encoding="UTF-8" standalone="no"?>
<!DOCTYPE svg PUBLIC "-//W3C//DTD SVG 1.1//EN" "http://www.w3.org/Graphics/SVG/1.1/DTD/svg11.dtd">
<svg width="100%" height="100%" viewBox="0 0 72 72" version="1.1" xmlns="http://www.w3.org/2000/svg" xmlns:xlink="http://www.w3.org/1999/xlink" xml:space="preserve" xmlns:serif="http://www.serif.com/" style="fill-rule:evenodd;clip-rule:evenodd;stroke-linecap:round;stroke-linejoin:round;">
    <rect x="0" y="0" width="72" height="72" style="fill:rgb(174,132,0);"/>
    <g transform="matrix(0.419819,0,0,0.419819,22.4189,60.8103)">
        <g transform="matrix(20,0,0,20,0,0)">
            <path d="M0.338,0.012C0.297,0.012 0.259,0.004 0.224,-0.011C0.189,-0.026 0.159,-0.049 0.134,-0.078C0.108,-0.107 0.088,-0.142 0.074,-0.185C0.059,-0.227 0.052,-0.275 0.052,-0.328C0.052,-0.381 0.059,-0.428 0.074,-0.47C0.089,-0.512 0.109,-0.548 0.135,-0.577C0.161,-0.606 0.192,-0.629 0.227,-0.645C0.262,-0.66 0.301,-0.668 0.343,-0.668C0.383,-0.668 0.418,-0.66 0.449,-0.644C0.479,-0.627 0.504,-0.608 0.523,-0.587L0.478,-0.533C0.461,-0.552 0.441,-0.567 0.419,-0.578C0.397,-0.589 0.372,-0.595 0.344,-0.595C0.313,-0.595 0.284,-0.589 0.259,-0.577C0.234,-0.564 0.212,-0.547 0.194,-0.524C0.176,-0.5 0.162,-0.473 0.153,-0.44C0.143,-0.407 0.138,-0.371 0.138,-0.33C0.138,-0.289 0.143,-0.252 0.153,-0.219C0.162,-0.186 0.176,-0.157 0.193,-0.134C0.21,-0.111 0.232,-0.093 0.257,-0.08C0.281,-0.067 0.31,-0.061 0.341,-0.061C0.373,-0.061 0.401,-0.068 0.425,-0.081C0.449,-0.094 0.472,-0.112 0.493,-0.135L0.539,-0.083C0.513,-0.053 0.484,-0.03 0.451,-0.013C0.418,0.004 0.381,0.012 0.338,0.012Z" style="fill:white;fill-rule:nonzero;"/>
        </g>
        <g transform="matrix(20,0,0,20,15.42,0)">
            <path d="M0.09,-0.656L0.19,-0.656L0.316,-0.306C0.324,-0.283 0.332,-0.261 0.34,-0.237C0.347,-0.215 0.355,-0.192 0.363,-0.169L0.367,-0.169C0.375,-0.192 0.383,-0.215 0.39,-0.237C0.397,-0.261 0.404,-0.283 0.412,-0.306L0.536,-0.656L0.637,-0.656L0.637,-0L0.559,-0L0.559,-0.361C0.559,-0.39 0.56,-0.423 0.563,-0.458C0.566,-0.493 0.568,-0.526 0.57,-0.555L0.566,-0.555L0.514,-0.406L0.39,-0.066L0.335,-0.066L0.211,-0.406L0.159,-0.555L0.155,-0.555C0.157,-0.526 0.159,-0.493 0.162,-0.458C0.164,-0.423 0.165,-0.39 0.165,-0.361L0.165,-0L0.09,-0L0.09,-0.656Z" style="fill:white;fill-rule:nonzero;"/>
        </g>
        <g transform="matrix(20,0,0,20,29.96,0)">
            <path d="M0.082,-0.486L0.164,-0.486L0.164,-0L0.082,-0L0.082,-0.486ZM0.124,-0.586C0.108,-0.586 0.095,-0.591 0.084,-0.601C0.073,-0.611 0.067,-0.624 0.067,-0.639C0.067,-0.655 0.073,-0.668 0.084,-0.678C0.095,-0.687 0.108,-0.692 0.124,-0.692C0.14,-0.692 0.154,-0.687 0.165,-0.678C0.175,-0.668 0.181,-0.655 0.181,-0.639C0.181,-0.624 0.175,-0.611 0.165,-0.601C0.154,-0.591 0.14,-0.586 0.124,-0.586Z" style="fill:white;fill-rule:nonzero;"/>
        </g>
        <g transform="matrix(20,0,0,20,34.88,0)">
            <path d="M0.082,-0.486L0.15,-0.486L0.157,-0.416L0.16,-0.416C0.183,-0.439 0.208,-0.459 0.234,-0.474C0.259,-0.49 0.289,-0.498 0.323,-0.498C0.374,-0.498 0.412,-0.482 0.436,-0.45C0.459,-0.418 0.471,-0.371 0.471,-0.308L0.471,-0L0.389,-0L0.389,-0.297C0.389,-0.343 0.382,-0.376 0.367,-0.397C0.352,-0.417 0.329,-0.427 0.297,-0.427C0.272,-0.427 0.249,-0.421 0.23,-0.408C0.211,-0.395 0.189,-0.377 0.164,-0.352L0.164,-0L0.082,-0L0.082,-0.486Z" style="fill:white;fill-rule:nonzero;"/>
        </g>
        <g transform="matrix(20,0,0,20,45.82,0)">
            <path d="M0.271,0.012C0.241,0.012 0.213,0.006 0.186,-0.005C0.159,-0.016 0.135,-0.033 0.114,-0.055C0.093,-0.076 0.077,-0.103 0.065,-0.135C0.052,-0.166 0.046,-0.202 0.046,-0.242C0.046,-0.283 0.052,-0.319 0.065,-0.35C0.077,-0.382 0.093,-0.409 0.114,-0.431C0.135,-0.453 0.159,-0.47 0.186,-0.481C0.213,-0.492 0.241,-0.498 0.271,-0.498C0.301,-0.498 0.33,-0.492 0.357,-0.481C0.384,-0.47 0.407,-0.453 0.428,-0.431C0.449,-0.409 0.465,-0.382 0.477,-0.35C0.49,-0.319 0.496,-0.283 0.496,-0.242C0.496,-0.202 0.49,-0.166 0.477,-0.135C0.465,-0.103 0.449,-0.076 0.428,-0.055C0.407,-0.033 0.384,-0.016 0.357,-0.005C0.33,0.006 0.301,0.012 0.271,0.012ZM0.271,-0.056C0.292,-0.056 0.311,-0.061 0.328,-0.07C0.345,-0.079 0.36,-0.091 0.373,-0.108C0.385,-0.124 0.394,-0.143 0.401,-0.166C0.408,-0.189 0.411,-0.214 0.411,-0.242C0.411,-0.27 0.408,-0.296 0.401,-0.319C0.394,-0.342 0.385,-0.361 0.373,-0.378C0.36,-0.395 0.345,-0.407 0.328,-0.417C0.311,-0.426 0.292,-0.43 0.271,-0.43C0.25,-0.43 0.231,-0.426 0.214,-0.417C0.197,-0.407 0.182,-0.395 0.17,-0.378C0.157,-0.361 0.148,-0.342 0.141,-0.319C0.134,-0.296 0.131,-0.27 0.131,-0.242C0.131,-0.214 0.134,-0.189 0.141,-0.166C0.148,-0.143 0.157,-0.124 0.17,-0.108C0.182,-0.091 0.197,-0.079 0.214,-0.07C0.231,-0.061 0.25,-0.056 0.271,-0.056Z" style="fill:white;fill-rule:nonzero;"/>
        </g>
        <g transform="matrix(20,0,0,20,56.66,0)">
            <path d="M0.082,-0.486L0.15,-0.486L0.157,-0.398L0.16,-0.398C0.177,-0.429 0.197,-0.453 0.221,-0.471C0.244,-0.489 0.27,-0.498 0.298,-0.498C0.317,-0.498 0.335,-0.495 0.35,-0.488L0.334,-0.416C0.326,-0.419 0.319,-0.421 0.312,-0.422C0.305,-0.423 0.297,-0.424 0.287,-0.424C0.266,-0.424 0.245,-0.416 0.223,-0.399C0.2,-0.382 0.181,-0.353 0.164,-0.312L0.164,-0L0.082,-0L0.082,-0.486Z" style="fill:white;fill-rule:nonzero;"/>
        </g>
    </g>
    <g transform="matrix(0.78418,0,0,0.78418,6.00006,10.9193)">
        <g id="g1" transform="matrix(1,0,0,1,0,28.787)">
            <path id="line1" d="M0.249,0L76.264,0" style="fill:none;fill-rule:nonzero;stroke:white;stroke-width:0.5px;"/>
        </g>
        <g id="g2" transform="matrix(1,0,0,1,0,23.8057)">
            <path id="line2" d="M0.249,0L76.264,0" style="fill:none;fill-rule:nonzero;stroke:white;stroke-width:0.5px;"/>
        </g>
        <g id="g3" transform="matrix(1,0,0,1,0,18.8244)">
            <path id="line3" d="M0.249,0L76.264,0" style="fill:none;fill-rule:nonzero;stroke:white;stroke-width:0.5px;"/>
        </g>
        <g id="g4" transform="matrix(1,0,0,1,0,13.8431)">
            <path id="line4" d="M0.249,0L76.264,0" style="fill:none;fill-rule:nonzero;stroke:white;stroke-width:0.5px;"/>
        </g>
        <g id="g5" transform="matrix(1,0,0,1,0,8.86177)">
            <path id="line5" d="M0.249,0L76.264,0" style="fill:none;fill-rule:nonzero;stroke:white;stroke-width:0.5px;"/>
        </g>
        <g transform="matrix(0.004,0,0,-0.004,3.98506,23.8057)">
            <g id="g6">
                <path id="path5" d="M1325.03,-3163.14L1295.14,-3163.14C757.16,-3163.14 323.786,-2724.78 323.786,-2181.82C323.786,-1892.9 587.796,-1668.74 881.693,-1668.74C1150.68,-1668.74 1354.92,-1902.86 1354.92,-2181.82C1354.92,-2440.85 1140.72,-2655.04 881.693,-2655.04C826.899,-2655.04 777.086,-2645.08 727.273,-2625.16C856.787,-2819.43 1066,-2948.94 1310.09,-2948.94L1330.01,-2948.94L1325.03,-3163.14ZM2296.39,-1011.21C2635.12,-891.656 2859.28,-537.982 2859.28,-194.271C2859.28,254.047 2530.51,697.385 1997.51,752.179C2117.06,174.346 2226.65,-398.506 2296.39,-1011.21ZM368.618,139.477C368.618,-533.001 1011.21,-1090.91 1683.69,-1090.91C1823.16,-1090.91 1957.66,-1080.95 2092.15,-1061.02C2022.41,-428.393 1907.85,159.402 1778.33,752.179C1384.81,712.329 1160.65,448.319 1160.65,159.402C1160.65,-59.776 1285.18,-293.898 1564.13,-453.3C1589.04,-478.207 1599,-503.113 1599,-528.02C1599,-582.814 1549.19,-637.609 1489.41,-637.609C1474.47,-637.609 1459.53,-632.628 1444.58,-627.646C1046.08,-413.449 861.768,-54.795 861.768,293.898C861.768,732.254 1150.68,1160.65 1658.78,1275.22C1589.04,1564.13 1514.32,1858.03 1429.64,2146.95C896.637,1544.21 368.618,936.488 368.618,139.477ZM1668.74,-1305.11C732.254,-1305.11 9.963,-448.319 9.963,557.908C9.963,1439.6 662.515,2082.19 1245.33,2754.67C1150.68,3063.51 1061.02,3377.33 1021.17,3701.12C991.282,3960.15 986.301,4219.18 986.301,4478.21C986.301,5051.06 1260.27,5594.02 1728.52,5932.75C1758.41,5957.66 1798.26,5957.66 1828.14,5932.75C2181.82,5514.32 2490.66,4712.33 2490.66,4149.44C2490.66,3437.11 2062.27,2879.2 1594.02,2336.24C1698.63,1997.51 1788.29,1648.82 1872.98,1305.11C1892.9,1305.11 1917.81,1310.09 1937.73,1310.09C2709.84,1310.09 3212.95,672.478 3212.95,9.963C3212.95,-368.618 3048.57,-757.16 2679.95,-1036.11C2570.36,-1120.8 2445.83,-1175.59 2316.31,-1215.44C2331.26,-1389.79 2341.22,-1564.13 2341.22,-1738.48C2341.22,-1833.12 2336.24,-1932.75 2331.26,-2027.4C2296.39,-2620.17 1892.9,-3148.19 1325.03,-3163.14L1330.01,-2948.94C1793.28,-2938.98 2092.15,-2490.66 2122.04,-1997.51C2127.02,-1907.85 2132.01,-1813.2 2132.01,-1723.54C2132.01,-1569.12 2127.02,-1419.68 2112.08,-1265.26C1967.62,-1290.16 1823.16,-1305.11 1668.74,-1305.11ZM2132.01,4562.89C2132.01,4836.86 2112.08,4956.41 2032.38,5205.48C1539.23,4966.38 1225.4,4463.26 1225.4,3915.32C1225.4,3546.7 1315.07,3252.8 1404.73,2948.94C1803.24,3432.13 2132.01,3935.24 2132.01,4562.89Z" style="fill:white;fill-rule:nonzero;"/>
            </g>
        </g>
        <g id="a9" transform="matrix(1,0,0,1,-70.8662,-19.1547)">
            <g transform="matrix(0.004,0,0,-0.004,92.8837,37.9791)">
                <g id="g7">
                    <path id="path6" d="M134.496,204.234L129.514,-124.533L129.514,-179.327C129.514,-288.916 134.496,-398.506 149.44,-508.095C373.599,-318.804 612.702,-109.589 612.702,184.309C612.702,348.692 542.964,518.057 398.506,518.057C244.085,518.057 139.477,368.618 134.496,204.234ZM-74.72,-687.422L-134.496,2276.46C-94.645,2301.37 -44.832,2316.31 -0,2316.31C44.832,2316.31 94.645,2301.37 134.496,2276.46L99.626,557.908C224.159,662.515 388.543,727.273 552.926,727.273C811.955,727.273 996.264,488.169 996.264,219.178C996.264,-179.327 567.87,-363.636 264.01,-622.665C189.29,-687.422 144.458,-811.955 39.851,-811.955C-24.907,-811.955 -74.72,-757.16 -74.72,-687.422Z" style="fill:white;fill-rule:nonzero;"/>
                </g>
            </g>
            <g transform="matrix(0.004,0,0,-0.004,97.4665,30.5071)">
                <g id="g8">
                    <path id="path7" d="M134.496,204.234L129.514,-124.533L129.514,-179.327C129.514,-288.916 134.496,-398.506 149.44,-508.095C373.599,-318.804 612.702,-109.589 612.702,184.309C612.702,348.692 542.964,518.057 398.506,518.057C244.085,518.057 139.477,368.618 134.496,204.234ZM-74.72,-687.422L-134.496,2276.46C-94.645,2301.37 -44.832,2316.31 -0,2316.31C44.832,2316.31 94.645,2301.37 134.496,2276.46L99.626,557.908C224.159,662.515 388.543,727.273 552.926,727.273C811.955,727.273 996.264,488.169 996.264,219.178C996.264,-179.327 567.87,-363.636 264.01,-622.665C189.29,-687.422 144.458,-811.955 39.851,-811.955C-24.907,-811.955 -74.72,-757.16 -74.72,-687.422Z" style="fill:white;fill-rule:nonzero;"/>
                </g>
            </g>
            <g transform="matrix(0.004,0,0,-0.004,102.049,40.4697)">
                <g id="g9">
                    <path id="path8" d="M134.496,204.234L129.514,-124.533L129.514,-179.327C129.514,-288.916 134.496,-398.506 149.44,-508.095C373.599,-318.804 612.702,-109.589 612.702,184.309C612.702,348.692 542.964,518.057 398.506,518.057C244.085,518.057 139.477,368.618 134.496,204.234ZM-74.72,-687.422L-134.496,2276.46C-94.645,2301.37 -44.832,2316.31 -0,2316.31C44.832,2316.31 94.645,2301.37 134.496,2276.46L99.626,557.908C224.159,662.515 388.543,727.273 552.926,727.273C811.955,727.273 996.264,488.169 996.264,219.178C996.264,-179.327 567.87,-363.636 264.01,-622.665C189.29,-687.422 144.458,-811.955 39.851,-811.955C-24.907,-811.955 -74.72,-757.16 -74.72,-687.422Z" style="fill:white;fill-rule:nonzero;"/>
                </g>
            </g>
        </g>
    </g>
</svg>
