<?xml version="1.0" encoding="UTF-8" standalone="no"?>
<!DOCTYPE svg PUBLIC "-//W3C//DTD SVG 1.1//EN" "http://www.w3.org/Graphics/SVG/1.1/DTD/svg11.dtd">
<svg width="100%" height="100%" viewBox="0 0 72 72" version="1.1" xmlns="http://www.w3.org/2000/svg" xmlns:xlink="http://www.w3.org/1999/xlink" xml:space="preserve" xmlns:serif="http://www.serif.com/" style="fill-rule:evenodd;clip-rule:evenodd;stroke-linejoin:round;stroke-miterlimit:2;">
    <rect x="0" y="0" width="72" height="72" style="fill:rgb(174,132,0);"/>
    <g transform="matrix(0.419819,0,0,0.419819,8.02384,40.9263)">
        <text x="4.109px" y="47.363px" style="font-family:'SourceSansPro-Regular', 'Source Sans Pro', sans-serif;font-size:20px;fill:white;">K<tspan x="15.549px " y="47.363px ">e</tspan>y Signa<tspan x="85.329px " y="47.363px ">t</tspan>ur<tspan x="109.709px " y="47.363px ">e</tspan>s</text>
    </g>
    <g id="keys-folder.svg" transform="matrix(0.0340745,0,0,0.0340745,36,28.4453)">
        <g transform="matrix(1,0,0,1,-485,-480)">
            <g transform="matrix(1,0,0,1,10,0)">
                <path d="M580,863L580,748C580,742.667 578,738.5 574,735.5C570,732.5 565.333,731.667 560,733L555,734C551,734 547.5,732.5 544.5,729.5C541.5,726.5 540,723 540,719L540,671C540,663.667 543.333,659 550,657L570,650C572.667,649.333 575,647.667 577,645C579,642.333 580,639.333 580,636L580,548C580,542.667 578,538.5 574,535.5C570,532.5 565.333,531.667 560,533L555,534C551,534 547.5,532.5 544.5,529.5C541.5,526.5 540,523 540,519L540,471C540,463.667 543.333,459 550,457L570,450C572.667,449.333 575,447.667 577,445C579,442.333 580,439.333 580,436L580,320C580,314.667 582,310 586,306C590,302 594.667,300 600,300C604,300 608.667,301.667 614,305C618,307 620,311 620,317L620,412C620,417.333 622,421.5 626,424.5C630,427.5 634.667,428.333 640,427L690,410C692.667,409.333 695,407.667 697,405C699,402.333 700,399.333 700,396L700,280C700,274.667 702,270 706,266C710,262 714.667,260 720,260C724,260 728.667,261.667 734,265C738,267 740,271 740,277L740,372C740,377.333 742,381.5 746,384.5C750,387.5 754.667,388.333 760,387L765,386C769,386 772.5,387.5 775.5,390.5C778.5,393.5 780,397 780,401L780,449C780,456.333 776.667,461 770,463L750,470C747.333,470.667 745,472.333 743,475C741,477.667 740,480.667 740,484L740,572C740,577.333 742,581.5 746,584.5C750,587.5 754.667,588.333 760,587L765,586C769,586 772.5,587.5 775.5,590.5C778.5,593.5 780,597 780,601L780,649C780,656.333 776.667,661 770,663L750,670C747.333,670.667 745,672.333 743,675C741,677.667 740,680.667 740,684L740,820C740,825.333 738,830 734,834C730,838 725.333,840 720,840C716,840 711.333,838.333 706,835C702,833 700,829 700,823L700,708C700,702.667 698,698.5 694,695.5C690,692.5 685.333,691.667 680,693L630,710C627.333,710.667 625,712.333 623,715C621,717.667 620,720.667 620,724L620,860C620,865.333 618,870 614,874C610,878 605.333,880 600,880C596,880 591.333,878.333 586,875C582,873 580,869 580,863ZM190,477L210,470C212.667,469.333 215,467.667 217,465C219,462.333 220,459.333 220,456L220,368C220,362.667 218,358.5 214,355.5C210,352.5 205.333,351.667 200,353L195,354C191,354 187.5,352.5 184.5,349.5C181.5,346.5 180,343 180,339L180,291C180,283.667 183.333,279 190,277L210,270C212.667,269.333 215,267.667 217,265C219,262.333 220,259.333 220,256L220,140C220,134.667 222,130 226,126C230,122 234.667,120 240,120C244,120 248.667,121.667 254,125C258,127 260,131 260,137L260,232C260,237.333 262,241.5 266,244.5C270,247.5 274.667,248.333 280,247L330,230C332.667,229.333 335,227.667 337,225C339,222.333 340,219.333 340,216L340,100C340,94.667 342,90 346,86C350,82 354.667,80 360,80C364,80 368.667,81.667 374,85C378,87 380,91 380,97L380,192C380,197.333 382,201.5 386,204.5C390,207.5 394.667,208.333 400,207L405,206C409,206 412.5,207.5 415.5,210.5C418.5,213.5 420,217 420,221L420,269C420,276.333 416.667,281 410,283L390,290C387.333,290.667 385,292.333 383,295C381,297.667 380,300.667 380,304L380,392C380,397.333 382,401.5 386,404.5C390,407.5 394.667,408.333 400,407L405,406C409,406 412.5,407.5 415.5,410.5C418.5,413.5 420,417 420,421L420,469C420,476.333 416.667,481 410,483L390,490C387.333,490.667 385,492.333 383,495C381,497.667 380,500.667 380,504L380,640C380,645.333 378,650 374,654C370,658 365.333,660 360,660C356,660 351.333,658.333 346,655C342,653 340,649 340,643L340,528C340,522.667 338,518.5 334,515.5C330,512.5 325.333,511.667 320,513L270,530C267.333,530.667 265,532.333 263,535C261,537.667 260,540.667 260,544L260,680C260,685.333 258,690 254,694C250,698 245.333,700 240,700C236,700 231.333,698.333 226,695C222,693 220,689 220,683L220,568C220,562.667 218,558.5 214,555.5C210,552.5 205.333,551.667 200,553L195,554C191,554 187.5,552.5 184.5,549.5C181.5,546.5 180,543 180,539L180,491C180,483.667 183.333,479 190,477ZM266,444.5C270,447.5 274.667,448.333 280,447L330,430C332.667,429.333 335,427.667 337,425C339,422.333 340,419.333 340,416L340,328C340,322.667 338,318.5 334,315.5C330,312.5 325.333,311.667 320,313L270,330C267.333,330.667 265,332.333 263,335C261,337.667 260,340.667 260,344L260,432C260,437.333 262,441.5 266,444.5ZM626,624.5C630,627.5 634.667,628.333 640,627L690,610C692.667,609.333 695,607.667 697,605C699,602.333 700,599.333 700,596L700,508C700,502.667 698,498.5 694,495.5C690,492.5 685.333,491.667 680,493L630,510C627.333,510.667 625,512.333 623,515C621,517.667 620,520.667 620,524L620,612C620,617.333 622,621.5 626,624.5Z" style="fill:white;fill-rule:nonzero;"/>
            </g>
        </g>
    </g>
</svg>
