<?xml version="1.0" encoding="UTF-8" standalone="no"?>
<!DOCTYPE svg PUBLIC "-//W3C//DTD SVG 1.1//EN" "http://www.w3.org/Graphics/SVG/1.1/DTD/svg11.dtd">
<svg width="100%" height="100%" viewBox="0 0 72 72" version="1.1" xmlns="http://www.w3.org/2000/svg" xmlns:xlink="http://www.w3.org/1999/xlink" xml:space="preserve" xmlns:serif="http://www.serif.com/" style="fill-rule:evenodd;clip-rule:evenodd;stroke-linecap:round;stroke-linejoin:round;">
    <rect x="0" y="0" width="72" height="72" style="fill:rgb(174,132,0);"/>
    <g transform="matrix(0.419819,0,0,0.419819,13.8042,60.8103)">
        <g transform="matrix(20,0,0,20,0,0)">
            <path d="M0.332,0.012C0.291,0.012 0.253,0.004 0.219,-0.012C0.184,-0.028 0.155,-0.051 0.13,-0.081C0.105,-0.11 0.086,-0.146 0.073,-0.189C0.059,-0.231 0.052,-0.278 0.052,-0.331C0.052,-0.384 0.059,-0.431 0.073,-0.472C0.086,-0.514 0.105,-0.55 0.13,-0.579C0.155,-0.608 0.184,-0.63 0.219,-0.645C0.253,-0.66 0.291,-0.668 0.332,-0.668C0.373,-0.668 0.411,-0.66 0.446,-0.645C0.48,-0.629 0.509,-0.607 0.535,-0.578C0.56,-0.549 0.579,-0.513 0.593,-0.471C0.606,-0.43 0.613,-0.383 0.613,-0.331C0.613,-0.278 0.606,-0.231 0.593,-0.189C0.579,-0.146 0.56,-0.11 0.535,-0.081C0.509,-0.051 0.48,-0.028 0.446,-0.012C0.411,0.004 0.373,0.012 0.332,0.012ZM0.332,-0.061C0.361,-0.061 0.388,-0.067 0.411,-0.08C0.435,-0.093 0.456,-0.111 0.472,-0.135C0.49,-0.158 0.503,-0.187 0.512,-0.22C0.521,-0.253 0.526,-0.29 0.526,-0.331C0.526,-0.372 0.521,-0.408 0.512,-0.441C0.503,-0.474 0.49,-0.501 0.472,-0.524C0.456,-0.547 0.435,-0.564 0.411,-0.577C0.388,-0.589 0.361,-0.595 0.332,-0.595C0.303,-0.595 0.276,-0.589 0.253,-0.577C0.229,-0.564 0.209,-0.547 0.192,-0.524C0.174,-0.501 0.161,-0.474 0.152,-0.441C0.143,-0.408 0.138,-0.372 0.138,-0.331C0.138,-0.29 0.143,-0.253 0.152,-0.22C0.161,-0.187 0.174,-0.158 0.192,-0.135C0.209,-0.111 0.229,-0.093 0.253,-0.08C0.276,-0.067 0.303,-0.061 0.332,-0.061Z" style="fill:white;fill-rule:nonzero;"/>
        </g>
        <g transform="matrix(20,0,0,20,13.28,0)">
            <path d="M0.082,-0.486L0.15,-0.486L0.157,-0.43L0.16,-0.43C0.182,-0.449 0.206,-0.465 0.233,-0.478C0.259,-0.491 0.286,-0.498 0.315,-0.498C0.346,-0.498 0.374,-0.492 0.398,-0.481C0.422,-0.469 0.442,-0.452 0.458,-0.431C0.474,-0.409 0.486,-0.383 0.495,-0.353C0.503,-0.322 0.507,-0.288 0.507,-0.25C0.507,-0.209 0.501,-0.172 0.49,-0.14C0.479,-0.107 0.463,-0.08 0.444,-0.057C0.425,-0.034 0.402,-0.017 0.377,-0.006C0.352,0.006 0.325,0.012 0.297,0.012C0.274,0.012 0.252,0.007 0.23,-0.003C0.207,-0.013 0.185,-0.027 0.162,-0.044L0.164,0.041L0.164,0.205L0.082,0.205L0.082,-0.486ZM0.283,-0.057C0.303,-0.057 0.322,-0.062 0.339,-0.07C0.356,-0.08 0.37,-0.092 0.383,-0.109C0.395,-0.125 0.405,-0.145 0.411,-0.169C0.419,-0.193 0.422,-0.22 0.422,-0.25C0.422,-0.277 0.42,-0.301 0.415,-0.323C0.41,-0.345 0.403,-0.364 0.393,-0.38C0.382,-0.395 0.369,-0.407 0.353,-0.416C0.336,-0.425 0.317,-0.429 0.294,-0.429C0.273,-0.429 0.253,-0.423 0.232,-0.412C0.211,-0.401 0.188,-0.384 0.164,-0.363L0.164,-0.108C0.186,-0.089 0.207,-0.076 0.228,-0.069C0.249,-0.061 0.267,-0.057 0.283,-0.057Z" style="fill:white;fill-rule:nonzero;"/>
        </g>
        <g transform="matrix(20,0,0,20,24.38,0)">
            <path d="M0.279,0.012C0.246,0.012 0.216,0.006 0.188,-0.006C0.159,-0.017 0.135,-0.034 0.114,-0.056C0.093,-0.077 0.076,-0.104 0.064,-0.135C0.052,-0.166 0.046,-0.202 0.046,-0.242C0.046,-0.282 0.052,-0.318 0.065,-0.349C0.077,-0.381 0.093,-0.408 0.114,-0.43C0.134,-0.452 0.157,-0.469 0.183,-0.481C0.209,-0.492 0.236,-0.498 0.264,-0.498C0.295,-0.498 0.322,-0.493 0.346,-0.482C0.371,-0.471 0.391,-0.456 0.407,-0.436C0.424,-0.416 0.436,-0.392 0.445,-0.364C0.454,-0.336 0.458,-0.305 0.458,-0.27L0.458,-0.245C0.457,-0.236 0.456,-0.229 0.455,-0.223L0.127,-0.223C0.13,-0.171 0.147,-0.13 0.175,-0.1C0.204,-0.069 0.242,-0.054 0.289,-0.054C0.312,-0.054 0.334,-0.058 0.354,-0.065C0.373,-0.071 0.392,-0.081 0.41,-0.092L0.439,-0.038C0.418,-0.025 0.394,-0.013 0.368,-0.003C0.342,0.007 0.312,0.012 0.279,0.012ZM0.386,-0.282C0.386,-0.331 0.376,-0.369 0.355,-0.395C0.334,-0.42 0.304,-0.433 0.266,-0.433C0.249,-0.433 0.232,-0.43 0.217,-0.423C0.201,-0.416 0.187,-0.406 0.174,-0.394C0.161,-0.381 0.151,-0.365 0.142,-0.346C0.134,-0.327 0.129,-0.306 0.126,-0.282L0.386,-0.282Z" style="fill:white;fill-rule:nonzero;"/>
        </g>
        <g transform="matrix(20,0,0,20,34.3,0)">
            <path d="M0.082,-0.486L0.15,-0.486L0.157,-0.416L0.16,-0.416C0.183,-0.439 0.208,-0.459 0.234,-0.474C0.259,-0.49 0.289,-0.498 0.323,-0.498C0.374,-0.498 0.412,-0.482 0.436,-0.45C0.459,-0.418 0.471,-0.371 0.471,-0.308L0.471,-0L0.389,-0L0.389,-0.297C0.389,-0.343 0.382,-0.376 0.367,-0.397C0.352,-0.417 0.329,-0.427 0.297,-0.427C0.272,-0.427 0.249,-0.421 0.23,-0.408C0.211,-0.395 0.189,-0.377 0.164,-0.352L0.164,-0L0.082,-0L0.082,-0.486Z" style="fill:white;fill-rule:nonzero;"/>
        </g>
        <g transform="matrix(20,0,0,20,45.24,0)">
            <path d="M0.277,-0.71L0.337,-0.71L0.07,0.16L0.01,0.16L0.277,-0.71Z" style="fill:white;fill-rule:nonzero;"/>
        </g>
        <g transform="matrix(20,0,0,20,51.44,0)">
            <path d="M0.369,-0.267L0.338,-0.367C0.326,-0.404 0.315,-0.44 0.304,-0.476C0.293,-0.513 0.283,-0.55 0.272,-0.588L0.268,-0.588C0.258,-0.55 0.248,-0.513 0.237,-0.476C0.226,-0.44 0.215,-0.404 0.203,-0.367L0.172,-0.267L0.369,-0.267ZM0.39,-0.2L0.151,-0.2L0.088,-0L0.003,-0L0.225,-0.656L0.319,-0.656L0.541,-0L0.452,-0L0.39,-0.2Z" style="fill:white;fill-rule:nonzero;"/>
        </g>
        <g transform="matrix(20,0,0,20,62.04,0)">
            <path d="M0.235,0.012C0.209,0.012 0.187,0.008 0.17,-0C0.152,-0.008 0.138,-0.019 0.127,-0.033C0.116,-0.047 0.108,-0.064 0.103,-0.084C0.098,-0.104 0.096,-0.126 0.096,-0.15L0.096,-0.419L0.024,-0.419L0.024,-0.481L0.1,-0.486L0.11,-0.622L0.179,-0.622L0.179,-0.486L0.31,-0.486L0.31,-0.419L0.179,-0.419L0.179,-0.149C0.179,-0.119 0.185,-0.096 0.196,-0.08C0.206,-0.063 0.226,-0.055 0.254,-0.055C0.263,-0.055 0.272,-0.056 0.282,-0.059C0.292,-0.062 0.301,-0.065 0.309,-0.068L0.325,-0.006C0.312,-0.001 0.297,0.003 0.281,0.006C0.266,0.01 0.25,0.012 0.235,0.012Z" style="fill:white;fill-rule:nonzero;"/>
        </g>
        <g transform="matrix(20,0,0,20,68.52,0)">
            <path d="M0.271,0.012C0.241,0.012 0.213,0.006 0.186,-0.005C0.159,-0.016 0.135,-0.033 0.114,-0.055C0.093,-0.076 0.077,-0.103 0.065,-0.135C0.052,-0.166 0.046,-0.202 0.046,-0.242C0.046,-0.283 0.052,-0.319 0.065,-0.35C0.077,-0.382 0.093,-0.409 0.114,-0.431C0.135,-0.453 0.159,-0.47 0.186,-0.481C0.213,-0.492 0.241,-0.498 0.271,-0.498C0.301,-0.498 0.33,-0.492 0.357,-0.481C0.384,-0.47 0.407,-0.453 0.428,-0.431C0.449,-0.409 0.465,-0.382 0.477,-0.35C0.49,-0.319 0.496,-0.283 0.496,-0.242C0.496,-0.202 0.49,-0.166 0.477,-0.135C0.465,-0.103 0.449,-0.076 0.428,-0.055C0.407,-0.033 0.384,-0.016 0.357,-0.005C0.33,0.006 0.301,0.012 0.271,0.012ZM0.271,-0.056C0.292,-0.056 0.311,-0.061 0.328,-0.07C0.345,-0.079 0.36,-0.091 0.373,-0.108C0.385,-0.124 0.394,-0.143 0.401,-0.166C0.408,-0.189 0.411,-0.214 0.411,-0.242C0.411,-0.27 0.408,-0.296 0.401,-0.319C0.394,-0.342 0.385,-0.361 0.373,-0.378C0.36,-0.395 0.345,-0.407 0.328,-0.417C0.311,-0.426 0.292,-0.43 0.271,-0.43C0.25,-0.43 0.231,-0.426 0.214,-0.417C0.197,-0.407 0.182,-0.395 0.17,-0.378C0.157,-0.361 0.148,-0.342 0.141,-0.319C0.134,-0.296 0.131,-0.27 0.131,-0.242C0.131,-0.214 0.134,-0.189 0.141,-0.166C0.148,-0.143 0.157,-0.124 0.17,-0.108C0.182,-0.091 0.197,-0.079 0.214,-0.07C0.231,-0.061 0.25,-0.056 0.271,-0.056Z" style="fill:white;fill-rule:nonzero;"/>
        </g>
        <g transform="matrix(20,0,0,20,79.36,0)">
            <path d="M0.082,-0.486L0.15,-0.486L0.157,-0.416L0.16,-0.416C0.183,-0.439 0.208,-0.459 0.234,-0.474C0.259,-0.49 0.289,-0.498 0.323,-0.498C0.374,-0.498 0.412,-0.482 0.436,-0.45C0.459,-0.418 0.471,-0.371 0.471,-0.308L0.471,-0L0.389,-0L0.389,-0.297C0.389,-0.343 0.382,-0.376 0.367,-0.397C0.352,-0.417 0.329,-0.427 0.297,-0.427C0.272,-0.427 0.249,-0.421 0.23,-0.408C0.211,-0.395 0.189,-0.377 0.164,-0.352L0.164,-0L0.082,-0L0.082,-0.486Z" style="fill:white;fill-rule:nonzero;"/>
        </g>
        <g transform="matrix(20,0,0,20,90.3,0)">
            <path d="M0.194,0.012C0.153,0.012 0.119,-0 0.093,-0.024C0.066,-0.048 0.052,-0.082 0.052,-0.126C0.052,-0.179 0.076,-0.22 0.123,-0.249C0.17,-0.277 0.246,-0.297 0.35,-0.308C0.35,-0.323 0.348,-0.338 0.345,-0.353C0.343,-0.368 0.337,-0.381 0.33,-0.392C0.323,-0.403 0.313,-0.412 0.3,-0.42C0.286,-0.427 0.27,-0.43 0.25,-0.43C0.222,-0.43 0.196,-0.425 0.171,-0.414C0.146,-0.403 0.124,-0.391 0.105,-0.378L0.073,-0.435C0.096,-0.45 0.123,-0.464 0.156,-0.477C0.189,-0.491 0.225,-0.498 0.264,-0.498C0.323,-0.498 0.366,-0.48 0.393,-0.444C0.42,-0.407 0.433,-0.359 0.433,-0.298L0.433,-0L0.365,-0L0.358,-0.058L0.355,-0.058C0.332,-0.039 0.307,-0.022 0.28,-0.009C0.253,0.005 0.225,0.012 0.194,0.012ZM0.218,-0.054C0.241,-0.054 0.263,-0.059 0.284,-0.07C0.305,-0.082 0.327,-0.098 0.35,-0.119L0.35,-0.254C0.309,-0.249 0.275,-0.242 0.248,-0.235C0.22,-0.228 0.198,-0.219 0.181,-0.209C0.164,-0.199 0.151,-0.188 0.143,-0.174C0.136,-0.162 0.132,-0.147 0.132,-0.132C0.132,-0.104 0.14,-0.084 0.157,-0.072C0.174,-0.06 0.194,-0.054 0.218,-0.054Z" style="fill:white;fill-rule:nonzero;"/>
        </g>
        <g transform="matrix(20,0,0,20,100.38,0)">
            <path d="M0.169,0.012C0.138,0.012 0.115,0.003 0.102,-0.016C0.089,-0.035 0.082,-0.062 0.082,-0.098L0.082,-0.712L0.164,-0.712L0.164,-0.092C0.164,-0.079 0.166,-0.069 0.171,-0.064C0.176,-0.059 0.181,-0.056 0.187,-0.056L0.195,-0.056C0.197,-0.056 0.2,-0.057 0.205,-0.058L0.216,0.004C0.211,0.007 0.204,0.009 0.197,0.01C0.19,0.011 0.18,0.012 0.169,0.012Z" style="fill:white;fill-rule:nonzero;"/>
        </g>
    </g>
    <g transform="matrix(0.78418,0,0,0.78418,6.00006,9.60181)">
        <g id="g1" transform="matrix(1,0,0,1,0,28.787)">
            <path id="line1" d="M0.249,0L76.264,0" style="fill:none;fill-rule:nonzero;stroke:white;stroke-width:0.5px;"/>
        </g>
        <g id="g2" transform="matrix(1,0,0,1,0,23.8057)">
            <path id="line2" d="M0.249,0L76.264,0" style="fill:none;fill-rule:nonzero;stroke:white;stroke-width:0.5px;"/>
        </g>
        <g id="g3" transform="matrix(1,0,0,1,0,18.8244)">
            <path id="line3" d="M0.249,0L76.264,0" style="fill:none;fill-rule:nonzero;stroke:white;stroke-width:0.5px;"/>
        </g>
        <g id="g4" transform="matrix(1,0,0,1,0,13.8431)">
            <path id="line4" d="M0.249,0L76.264,0" style="fill:none;fill-rule:nonzero;stroke:white;stroke-width:0.5px;"/>
        </g>
        <g id="g5" transform="matrix(1,0,0,1,0,8.86177)">
            <path id="line5" d="M0.249,0L76.264,0" style="fill:none;fill-rule:nonzero;stroke:white;stroke-width:0.5px;"/>
        </g>
        <g transform="matrix(0.004,0,0,-0.004,3.98506,23.8057)">
            <g id="g6">
                <path id="path5" d="M1325.03,-3163.14L1295.14,-3163.14C757.16,-3163.14 323.786,-2724.78 323.786,-2181.82C323.786,-1892.9 587.796,-1668.74 881.693,-1668.74C1150.68,-1668.74 1354.92,-1902.86 1354.92,-2181.82C1354.92,-2440.85 1140.72,-2655.04 881.693,-2655.04C826.899,-2655.04 777.086,-2645.08 727.273,-2625.16C856.787,-2819.43 1066,-2948.94 1310.09,-2948.94L1330.01,-2948.94L1325.03,-3163.14ZM2296.39,-1011.21C2635.12,-891.656 2859.28,-537.982 2859.28,-194.271C2859.28,254.047 2530.51,697.385 1997.51,752.179C2117.06,174.346 2226.65,-398.506 2296.39,-1011.21ZM368.618,139.477C368.618,-533.001 1011.21,-1090.91 1683.69,-1090.91C1823.16,-1090.91 1957.66,-1080.95 2092.15,-1061.02C2022.41,-428.393 1907.85,159.402 1778.33,752.179C1384.81,712.329 1160.65,448.319 1160.65,159.402C1160.65,-59.776 1285.18,-293.898 1564.13,-453.3C1589.04,-478.207 1599,-503.113 1599,-528.02C1599,-582.814 1549.19,-637.609 1489.41,-637.609C1474.47,-637.609 1459.53,-632.628 1444.58,-627.646C1046.08,-413.449 861.768,-54.795 861.768,293.898C861.768,732.254 1150.68,1160.65 1658.78,1275.22C1589.04,1564.13 1514.32,1858.03 1429.64,2146.95C896.637,1544.21 368.618,936.488 368.618,139.477ZM1668.74,-1305.11C732.254,-1305.11 9.963,-448.319 9.963,557.908C9.963,1439.6 662.515,2082.19 1245.33,2754.67C1150.68,3063.51 1061.02,3377.33 1021.17,3701.12C991.282,3960.15 986.301,4219.18 986.301,4478.21C986.301,5051.06 1260.27,5594.02 1728.52,5932.75C1758.41,5957.66 1798.26,5957.66 1828.14,5932.75C2181.82,5514.32 2490.66,4712.33 2490.66,4149.44C2490.66,3437.11 2062.27,2879.2 1594.02,2336.24C1698.63,1997.51 1788.29,1648.82 1872.98,1305.11C1892.9,1305.11 1917.81,1310.09 1937.73,1310.09C2709.84,1310.09 3212.95,672.478 3212.95,9.963C3212.95,-368.618 3048.57,-757.16 2679.95,-1036.11C2570.36,-1120.8 2445.83,-1175.59 2316.31,-1215.44C2331.26,-1389.79 2341.22,-1564.13 2341.22,-1738.48C2341.22,-1833.12 2336.24,-1932.75 2331.26,-2027.4C2296.39,-2620.17 1892.9,-3148.19 1325.03,-3163.14L1330.01,-2948.94C1793.28,-2938.98 2092.15,-2490.66 2122.04,-1997.51C2127.02,-1907.85 2132.01,-1813.2 2132.01,-1723.54C2132.01,-1569.12 2127.02,-1419.68 2112.08,-1265.26C1967.62,-1290.16 1823.16,-1305.11 1668.74,-1305.11ZM2132.01,4562.89C2132.01,4836.86 2112.08,4956.41 2032.38,5205.48C1539.23,4966.38 1225.4,4463.26 1225.4,3915.32C1225.4,3546.7 1315.07,3252.8 1404.73,2948.94C1803.24,3432.13 2132.01,3935.24 2132.01,4562.89Z" style="fill:white;fill-rule:nonzero;"/>
            </g>
        </g>
    </g>
</svg>
