<?xml version="1.0" standalone="no"?>
<!DOCTYPE svg PUBLIC "-//W3C//DTD SVG 1.1//EN" "http://www.w3.org/Graphics/SVG/1.1/DTD/svg11.dtd" >
<svg xmlns="http://www.w3.org/2000/svg" xmlns:xlink="http://www.w3.org/1999/xlink" version="1.1" viewBox="-10 0 970 960">
   <path fill="currentColor"
d="M457 955q-41 0 -74 -13.5t-50 -44.5q-11 -17 -11 -40q0 -29 17.5 -49.5t47.5 -20.5q28 0 46 20t18 47q0 22 -14 39q18 2 25 2q72 0 69 -79q-3 -27 -13 -73q-22 2 -33 2q-59 0 -113 -22t-88.5 -65.5t-34.5 -104.5q0 -77 51.5 -138t130.5 -107l-8 -39q-16 -66 -16 -103
q0 -9 2 -27q7 -48 40.5 -85.5t80.5 -49.5q3 -1 10 -1q21 0 34 8q32 18 48 52.5t16 74.5q0 58 -33 107t-89 102l26 121q51 0 94 25t55 70q5 18 5 34q0 43 -29 78.5t-72 50.5q5 24 9 49.5t4 48.5q0 51 -27 84.5t-79 42.5q-28 4 -45 4zM506 678l-31 -152q-38 7 -61 25
q-10 7 -14 15.5t-6.5 14.5t-8.5 5q-8 -3 -8 -14q0 -4 3 -19q17 -45 86 -73l-15 -77q-111 90 -111 162q0 31 22 60q21 26 55 39t71 14h18zM612.5 631.5q11.5 -16.5 11.5 -35.5q0 -25 -20 -42.5t-49 -23.5l27 128q19 -10 30.5 -26.5zM547.5 216.5q19.5 -22.5 28.5 -49.5
q4 -16 4 -24q0 -21 -9.5 -39.5t-26.5 -27.5q-28 11 -45.5 35.5t-17.5 56.5q0 22 10 62l7 33q30 -24 49.5 -46.5z" />
</svg>
