<?xml version="1.0" encoding="UTF-8" standalone="no"?>
<!DOCTYPE svg PUBLIC "-//W3C//DTD SVG 1.1//EN" "http://www.w3.org/Graphics/SVG/1.1/DTD/svg11.dtd">
<svg width="100%" height="100%" viewBox="0 0 72 72" version="1.1" xmlns="http://www.w3.org/2000/svg" xmlns:xlink="http://www.w3.org/1999/xlink" xml:space="preserve" xmlns:serif="http://www.serif.com/" style="fill-rule:evenodd;clip-rule:evenodd;stroke-linejoin:round;stroke-miterlimit:2;">
    <rect x="0" y="0" width="72" height="72" style="fill:rgb(0,63,122);"/>
    <g id="add-voice.svg" transform="matrix(0.0412371,0,0,0.0412371,36,29.7673)">
        <g transform="matrix(1,0,0,1,-485,-480)">
            <g transform="matrix(1,0,0,1,10,0)">
                <path d="M537.5,862.5C525.833,850.833 520,836.667 520,820L520,620C520,603.333 525.833,589.167 537.5,577.5C549.167,565.833 563.333,560 580,560L780,560C796.667,560 810.833,565.833 822.5,577.5C834.167,589.167 840,603.333 840,620L840,820C840,836.667 834.167,850.833 822.5,862.5C810.833,874.167 796.667,880 780,880L580,880C563.333,880 549.167,874.167 537.5,862.5ZM120,638C120,618 127.5,598.333 142.5,579C157.5,559.667 176.5,544 199.5,532C222.5,520 245,514 267,514C288.333,514 305.833,519.5 319.5,530.5C333.167,541.5 340,556.333 340,575C340,596.333 333.333,616.667 320,636C306.667,655.333 288.833,670.833 266.5,682.5C244.167,694.167 219.667,700 193,700C181,700 170,698 160,694L160,940C160,945.333 158,950 154,954C150,958 145.333,960 140,960C134.667,960 130,958 126,954C122,950 120,945.333 120,940L120,638ZM140,324C153.333,304.667 171.167,289.167 193.5,277.5C215.833,265.833 240.333,260 267,260C279,260 290,262 300,266L300,20C300,14.667 302,10 306,6C310,2 314.667,0 320,0C325.333,0 330,2 334,6C338,10 340,14.667 340,20L340,322C340,342 332.5,361.667 317.5,381C302.5,400.333 283.5,416 260.5,428C237.5,440 215,446 193,446C171.667,446 154.167,440.5 140.5,429.5C126.833,418.5 120,403.667 120,385C120,363.667 126.667,343.333 140,324ZM562.5,737.5C567.5,742.5 573.333,745 580,745L655,745L655,820C655,826.667 657.5,832.5 662.5,837.5C667.5,842.5 673.333,845 680,845C687.333,845 693.333,842.5 698,837.5C702.667,832.5 705,826.667 705,820L705,745L780,745C787.333,745 793.333,742.5 798,737.5C802.667,732.5 805,726.667 805,720C805,712.667 802.667,706.667 798,702C793.333,697.333 787.333,695 780,695L705,695L705,620C705,612.667 702.667,606.667 698,602C693.333,597.333 687.333,595 680,595C673.333,595 667.5,597.333 662.5,602C657.5,606.667 655,612.667 655,620L655,695L580,695C573.333,695 567.5,697.333 562.5,702C557.5,706.667 555,712.667 555,720C555,726.667 557.5,732.5 562.5,737.5Z" style="fill:white;fill-rule:nonzero;"/>
            </g>
        </g>
    </g>
    <g transform="matrix(1,0,0,1,17.829,61.408)">
        <text x="0px" y="0px" style="font-family:'SourceSansPro-Regular', 'Source Sans Pro', sans-serif;font-size:9px;fill:white;">Add V<tspan x="21.186px " y="0px ">o</tspan>ic<tspan x="32.193px " y="0px ">e</tspan></text>
    </g>
</svg>
