<?xml version="1.0" encoding="UTF-8" standalone="no"?>
<!DOCTYPE svg PUBLIC "-//W3C//DTD SVG 1.1//EN" "http://www.w3.org/Graphics/SVG/1.1/DTD/svg11.dtd">
<svg width="100%" height="100%" viewBox="0 0 72 72" version="1.1" xmlns="http://www.w3.org/2000/svg" xmlns:xlink="http://www.w3.org/1999/xlink" xml:space="preserve" xmlns:serif="http://www.serif.com/" style="fill-rule:evenodd;clip-rule:evenodd;stroke-linecap:round;stroke-linejoin:round;">
    <g transform="matrix(1.00225,0,0,1,0,0)">
        <rect x="0" y="0" width="72" height="72" style="fill:rgb(174,132,0);"/>
    </g>
    <g transform="matrix(0.789319,0,0,0.789319,5.88442,10.4486)">
        <g id="line1" transform="matrix(1,0,0,1,0,29.8879)">
            <path d="M0.249,0L76.264,0" style="fill:none;fill-rule:nonzero;stroke:white;stroke-width:0.5px;"/>
        </g>
        <g id="line2" transform="matrix(1,0,0,1,0,24.9066)">
            <path d="M0.249,0L76.264,0" style="fill:none;fill-rule:nonzero;stroke:white;stroke-width:0.5px;"/>
        </g>
        <g id="line3" transform="matrix(1,0,0,1,0,19.9253)">
            <path d="M0.249,0L76.264,0" style="fill:none;fill-rule:nonzero;stroke:white;stroke-width:0.5px;"/>
        </g>
        <g id="line4" transform="matrix(1,0,0,1,0,14.944)">
            <path d="M0.249,0L76.264,0" style="fill:none;fill-rule:nonzero;stroke:white;stroke-width:0.5px;"/>
        </g>
        <g id="line5" transform="matrix(1,0,0,1,0,9.96264)">
            <path d="M0.249,0L76.264,0" style="fill:none;fill-rule:nonzero;stroke:white;stroke-width:0.5px;"/>
        </g>
        <g id="path5" transform="matrix(0.004,0,0,-0.004,3.98506,24.9066)">
            <path d="M1325.03,-3163.14L1295.14,-3163.14C757.16,-3163.14 323.786,-2724.78 323.786,-2181.82C323.786,-1892.9 587.796,-1668.74 881.693,-1668.74C1150.68,-1668.74 1354.92,-1902.86 1354.92,-2181.82C1354.92,-2440.85 1140.72,-2655.04 881.693,-2655.04C826.899,-2655.04 777.086,-2645.08 727.273,-2625.16C856.787,-2819.43 1066,-2948.94 1310.09,-2948.94L1330.01,-2948.94L1325.03,-3163.14ZM2296.39,-1011.21C2635.12,-891.656 2859.28,-537.982 2859.28,-194.271C2859.28,254.047 2530.51,697.385 1997.51,752.179C2117.06,174.346 2226.65,-398.506 2296.39,-1011.21ZM368.618,139.477C368.618,-533.001 1011.21,-1090.91 1683.69,-1090.91C1823.16,-1090.91 1957.66,-1080.95 2092.15,-1061.02C2022.41,-428.393 1907.85,159.402 1778.33,752.179C1384.81,712.329 1160.65,448.319 1160.65,159.402C1160.65,-59.776 1285.18,-293.898 1564.13,-453.3C1589.04,-478.207 1599,-503.113 1599,-528.02C1599,-582.814 1549.19,-637.609 1489.41,-637.609C1474.47,-637.609 1459.53,-632.628 1444.58,-627.646C1046.08,-413.449 861.768,-54.795 861.768,293.898C861.768,732.254 1150.68,1160.65 1658.78,1275.22C1589.04,1564.13 1514.32,1858.03 1429.64,2146.95C896.637,1544.21 368.618,936.488 368.618,139.477ZM1668.74,-1305.11C732.254,-1305.11 9.963,-448.319 9.963,557.908C9.963,1439.6 662.515,2082.19 1245.33,2754.67C1150.68,3063.51 1061.02,3377.33 1021.17,3701.12C991.282,3960.15 986.301,4219.18 986.301,4478.21C986.301,5051.06 1260.27,5594.02 1728.52,5932.75C1758.41,5957.66 1798.26,5957.66 1828.14,5932.75C2181.82,5514.32 2490.66,4712.33 2490.66,4149.44C2490.66,3437.11 2062.27,2879.2 1594.02,2336.24C1698.63,1997.51 1788.29,1648.82 1872.98,1305.11C1892.9,1305.11 1917.81,1310.09 1937.73,1310.09C2709.84,1310.09 3212.95,672.478 3212.95,9.963C3212.95,-368.618 3048.57,-757.16 2679.95,-1036.11C2570.36,-1120.8 2445.83,-1175.59 2316.31,-1215.44C2331.26,-1389.79 2341.22,-1564.13 2341.22,-1738.48C2341.22,-1833.12 2336.24,-1932.75 2331.26,-2027.4C2296.39,-2620.17 1892.9,-3148.19 1325.03,-3163.14L1330.01,-2948.94C1793.28,-2938.98 2092.15,-2490.66 2122.04,-1997.51C2127.02,-1907.85 2132.01,-1813.2 2132.01,-1723.54C2132.01,-1569.12 2127.02,-1419.68 2112.08,-1265.26C1967.62,-1290.16 1823.16,-1305.11 1668.74,-1305.11ZM2132.01,4562.89C2132.01,4836.86 2112.08,4956.41 2032.38,5205.48C1539.23,4966.38 1225.4,4463.26 1225.4,3915.32C1225.4,3546.7 1315.07,3252.8 1404.73,2948.94C1803.24,3432.13 2132.01,3935.24 2132.01,4562.89Z" style="fill:white;fill-rule:nonzero;"/>
        </g>
        <g transform="matrix(0.004,0,0,-0.004,21.4197,9.96264)">
            <g id="g7">
                <path id="path6" d="M-0,592.777C-0,632.628 24.907,667.497 64.757,682.441L293.898,767.123L293.898,1554.17C293.898,1603.99 333.748,1648.82 383.562,1648.82C433.375,1648.82 478.207,1603.99 478.207,1554.17L478.207,831.88L891.656,986.301L891.656,1773.35C891.656,1823.16 936.488,1868 986.301,1868C1036.11,1868 1075.96,1823.16 1075.96,1773.35L1075.96,1051.06L1235.37,1110.83C1245.33,1115.82 1260.27,1115.82 1270.24,1115.82C1325.03,1115.82 1369.86,1070.98 1369.86,1016.19L1369.86,717.31C1369.86,677.459 1344.96,637.609 1305.11,622.665L1075.96,542.964L1075.96,-254.047L1235.37,-199.253C1245.33,-194.271 1260.27,-194.271 1270.24,-194.271C1325.03,-194.271 1369.86,-239.103 1369.86,-293.898L1369.86,-592.777C1369.86,-632.628 1344.96,-667.497 1305.11,-682.441L1075.96,-767.123L1075.96,-1554.17C1075.96,-1603.99 1036.11,-1648.82 986.301,-1648.82C936.488,-1648.82 891.656,-1603.99 891.656,-1554.17L891.656,-831.88L478.207,-986.301L478.207,-1773.35C478.207,-1823.16 433.375,-1868 383.562,-1868C333.748,-1868 293.898,-1823.16 293.898,-1773.35L293.898,-1051.06L134.496,-1110.83C124.533,-1115.82 109.589,-1115.82 99.626,-1115.82C44.832,-1115.82 -0,-1070.98 -0,-1016.19L-0,-717.31C-0,-677.459 24.907,-637.609 64.757,-622.665L293.898,-542.964L293.898,254.047L134.496,199.253C124.533,194.271 109.589,194.271 99.626,194.271C44.832,194.271 -0,239.103 -0,293.898L-0,592.777ZM891.656,473.225L478.207,323.786L478.207,-473.225L891.656,-323.786L891.656,473.225Z" style="fill:white;fill-rule:nonzero;"/>
            </g>
        </g>
        <g transform="matrix(0.004,0,0,-0.004,26.8991,17.4346)">
            <g id="g8">
                <path id="path7" d="M-0,592.777C-0,632.628 24.907,667.497 64.757,682.441L293.898,767.123L293.898,1554.17C293.898,1603.99 333.748,1648.82 383.562,1648.82C433.375,1648.82 478.207,1603.99 478.207,1554.17L478.207,831.88L891.656,986.301L891.656,1773.35C891.656,1823.16 936.488,1868 986.301,1868C1036.11,1868 1075.96,1823.16 1075.96,1773.35L1075.96,1051.06L1235.37,1110.83C1245.33,1115.82 1260.27,1115.82 1270.24,1115.82C1325.03,1115.82 1369.86,1070.98 1369.86,1016.19L1369.86,717.31C1369.86,677.459 1344.96,637.609 1305.11,622.665L1075.96,542.964L1075.96,-254.047L1235.37,-199.253C1245.33,-194.271 1260.27,-194.271 1270.24,-194.271C1325.03,-194.271 1369.86,-239.103 1369.86,-293.898L1369.86,-592.777C1369.86,-632.628 1344.96,-667.497 1305.11,-682.441L1075.96,-767.123L1075.96,-1554.17C1075.96,-1603.99 1036.11,-1648.82 986.301,-1648.82C936.488,-1648.82 891.656,-1603.99 891.656,-1554.17L891.656,-831.88L478.207,-986.301L478.207,-1773.35C478.207,-1823.16 433.375,-1868 383.562,-1868C333.748,-1868 293.898,-1823.16 293.898,-1773.35L293.898,-1051.06L134.496,-1110.83C124.533,-1115.82 109.589,-1115.82 99.626,-1115.82C44.832,-1115.82 -0,-1070.98 -0,-1016.19L-0,-717.31C-0,-677.459 24.907,-637.609 64.757,-622.665L293.898,-542.964L293.898,254.047L134.496,199.253C124.533,194.271 109.589,194.271 99.626,194.271C44.832,194.271 -0,239.103 -0,293.898L-0,592.777ZM891.656,473.225L478.207,323.786L478.207,-473.225L891.656,-323.786L891.656,473.225Z" style="fill:white;fill-rule:nonzero;"/>
            </g>
        </g>
        <g transform="matrix(0.004,0,0,-0.004,32.3786,7.47198)">
            <g id="g9">
                <path id="path8" d="M-0,592.777C-0,632.628 24.907,667.497 64.757,682.441L293.898,767.123L293.898,1554.17C293.898,1603.99 333.748,1648.82 383.562,1648.82C433.375,1648.82 478.207,1603.99 478.207,1554.17L478.207,831.88L891.656,986.301L891.656,1773.35C891.656,1823.16 936.488,1868 986.301,1868C1036.11,1868 1075.96,1823.16 1075.96,1773.35L1075.96,1051.06L1235.37,1110.83C1245.33,1115.82 1260.27,1115.82 1270.24,1115.82C1325.03,1115.82 1369.86,1070.98 1369.86,1016.19L1369.86,717.31C1369.86,677.459 1344.96,637.609 1305.11,622.665L1075.96,542.964L1075.96,-254.047L1235.37,-199.253C1245.33,-194.271 1260.27,-194.271 1270.24,-194.271C1325.03,-194.271 1369.86,-239.103 1369.86,-293.898L1369.86,-592.777C1369.86,-632.628 1344.96,-667.497 1305.11,-682.441L1075.96,-767.123L1075.96,-1554.17C1075.96,-1603.99 1036.11,-1648.82 986.301,-1648.82C936.488,-1648.82 891.656,-1603.99 891.656,-1554.17L891.656,-831.88L478.207,-986.301L478.207,-1773.35C478.207,-1823.16 433.375,-1868 383.562,-1868C333.748,-1868 293.898,-1823.16 293.898,-1773.35L293.898,-1051.06L134.496,-1110.83C124.533,-1115.82 109.589,-1115.82 99.626,-1115.82C44.832,-1115.82 -0,-1070.98 -0,-1016.19L-0,-717.31C-0,-677.459 24.907,-637.609 64.757,-622.665L293.898,-542.964L293.898,254.047L134.496,199.253C124.533,194.271 109.589,194.271 99.626,194.271C44.832,194.271 -0,239.103 -0,293.898L-0,592.777ZM891.656,473.225L478.207,323.786L478.207,-473.225L891.656,-323.786L891.656,473.225Z" style="fill:white;fill-rule:nonzero;"/>
            </g>
        </g>
        <g transform="matrix(0.004,0,0,-0.004,37.858,14.944)">
            <g id="g10">
                <path id="path9" d="M-0,592.777C-0,632.628 24.907,667.497 64.757,682.441L293.898,767.123L293.898,1554.17C293.898,1603.99 333.748,1648.82 383.562,1648.82C433.375,1648.82 478.207,1603.99 478.207,1554.17L478.207,831.88L891.656,986.301L891.656,1773.35C891.656,1823.16 936.488,1868 986.301,1868C1036.11,1868 1075.96,1823.16 1075.96,1773.35L1075.96,1051.06L1235.37,1110.83C1245.33,1115.82 1260.27,1115.82 1270.24,1115.82C1325.03,1115.82 1369.86,1070.98 1369.86,1016.19L1369.86,717.31C1369.86,677.459 1344.96,637.609 1305.11,622.665L1075.96,542.964L1075.96,-254.047L1235.37,-199.253C1245.33,-194.271 1260.27,-194.271 1270.24,-194.271C1325.03,-194.271 1369.86,-239.103 1369.86,-293.898L1369.86,-592.777C1369.86,-632.628 1344.96,-667.497 1305.11,-682.441L1075.96,-767.123L1075.96,-1554.17C1075.96,-1603.99 1036.11,-1648.82 986.301,-1648.82C936.488,-1648.82 891.656,-1603.99 891.656,-1554.17L891.656,-831.88L478.207,-986.301L478.207,-1773.35C478.207,-1823.16 433.375,-1868 383.562,-1868C333.748,-1868 293.898,-1823.16 293.898,-1773.35L293.898,-1051.06L134.496,-1110.83C124.533,-1115.82 109.589,-1115.82 99.626,-1115.82C44.832,-1115.82 -0,-1070.98 -0,-1016.19L-0,-717.31C-0,-677.459 24.907,-637.609 64.757,-622.665L293.898,-542.964L293.898,254.047L134.496,199.253C124.533,194.271 109.589,194.271 99.626,194.271C44.832,194.271 -0,239.103 -0,293.898L-0,592.777ZM891.656,473.225L478.207,323.786L478.207,-473.225L891.656,-323.786L891.656,473.225Z" style="fill:white;fill-rule:nonzero;"/>
            </g>
        </g>
        <g transform="matrix(0.004,0,0,-0.004,43.3375,22.4159)">
            <g id="g11">
                <path id="path10" d="M-0,592.777C-0,632.628 24.907,667.497 64.757,682.441L293.898,767.123L293.898,1554.17C293.898,1603.99 333.748,1648.82 383.562,1648.82C433.375,1648.82 478.207,1603.99 478.207,1554.17L478.207,831.88L891.656,986.301L891.656,1773.35C891.656,1823.16 936.488,1868 986.301,1868C1036.11,1868 1075.96,1823.16 1075.96,1773.35L1075.96,1051.06L1235.37,1110.83C1245.33,1115.82 1260.27,1115.82 1270.24,1115.82C1325.03,1115.82 1369.86,1070.98 1369.86,1016.19L1369.86,717.31C1369.86,677.459 1344.96,637.609 1305.11,622.665L1075.96,542.964L1075.96,-254.047L1235.37,-199.253C1245.33,-194.271 1260.27,-194.271 1270.24,-194.271C1325.03,-194.271 1369.86,-239.103 1369.86,-293.898L1369.86,-592.777C1369.86,-632.628 1344.96,-667.497 1305.11,-682.441L1075.96,-767.123L1075.96,-1554.17C1075.96,-1603.99 1036.11,-1648.82 986.301,-1648.82C936.488,-1648.82 891.656,-1603.99 891.656,-1554.17L891.656,-831.88L478.207,-986.301L478.207,-1773.35C478.207,-1823.16 433.375,-1868 383.562,-1868C333.748,-1868 293.898,-1823.16 293.898,-1773.35L293.898,-1051.06L134.496,-1110.83C124.533,-1115.82 109.589,-1115.82 99.626,-1115.82C44.832,-1115.82 -0,-1070.98 -0,-1016.19L-0,-717.31C-0,-677.459 24.907,-637.609 64.757,-622.665L293.898,-542.964L293.898,254.047L134.496,199.253C124.533,194.271 109.589,194.271 99.626,194.271C44.832,194.271 -0,239.103 -0,293.898L-0,592.777ZM891.656,473.225L478.207,323.786L478.207,-473.225L891.656,-323.786L891.656,473.225Z" style="fill:white;fill-rule:nonzero;"/>
            </g>
        </g>
        <g transform="matrix(0.004,0,0,-0.004,48.8169,12.4533)">
            <g id="g12">
                <path id="path11" d="M-0,592.777C-0,632.628 24.907,667.497 64.757,682.441L293.898,767.123L293.898,1554.17C293.898,1603.99 333.748,1648.82 383.562,1648.82C433.375,1648.82 478.207,1603.99 478.207,1554.17L478.207,831.88L891.656,986.301L891.656,1773.35C891.656,1823.16 936.488,1868 986.301,1868C1036.11,1868 1075.96,1823.16 1075.96,1773.35L1075.96,1051.06L1235.37,1110.83C1245.33,1115.82 1260.27,1115.82 1270.24,1115.82C1325.03,1115.82 1369.86,1070.98 1369.86,1016.19L1369.86,717.31C1369.86,677.459 1344.96,637.609 1305.11,622.665L1075.96,542.964L1075.96,-254.047L1235.37,-199.253C1245.33,-194.271 1260.27,-194.271 1270.24,-194.271C1325.03,-194.271 1369.86,-239.103 1369.86,-293.898L1369.86,-592.777C1369.86,-632.628 1344.96,-667.497 1305.11,-682.441L1075.96,-767.123L1075.96,-1554.17C1075.96,-1603.99 1036.11,-1648.82 986.301,-1648.82C936.488,-1648.82 891.656,-1603.99 891.656,-1554.17L891.656,-831.88L478.207,-986.301L478.207,-1773.35C478.207,-1823.16 433.375,-1868 383.562,-1868C333.748,-1868 293.898,-1823.16 293.898,-1773.35L293.898,-1051.06L134.496,-1110.83C124.533,-1115.82 109.589,-1115.82 99.626,-1115.82C44.832,-1115.82 -0,-1070.98 -0,-1016.19L-0,-717.31C-0,-677.459 24.907,-637.609 64.757,-622.665L293.898,-542.964L293.898,254.047L134.496,199.253C124.533,194.271 109.589,194.271 99.626,194.271C44.832,194.271 -0,239.103 -0,293.898L-0,592.777ZM891.656,473.225L478.207,323.786L478.207,-473.225L891.656,-323.786L891.656,473.225Z" style="fill:white;fill-rule:nonzero;"/>
            </g>
        </g>
        <g transform="matrix(0.004,0,0,-0.004,54.2964,19.9253)">
            <g id="g13">
                <path id="path12" d="M-0,592.777C-0,632.628 24.907,667.497 64.757,682.441L293.898,767.123L293.898,1554.17C293.898,1603.99 333.748,1648.82 383.562,1648.82C433.375,1648.82 478.207,1603.99 478.207,1554.17L478.207,831.88L891.656,986.301L891.656,1773.35C891.656,1823.16 936.488,1868 986.301,1868C1036.11,1868 1075.96,1823.16 1075.96,1773.35L1075.96,1051.06L1235.37,1110.83C1245.33,1115.82 1260.27,1115.82 1270.24,1115.82C1325.03,1115.82 1369.86,1070.98 1369.86,1016.19L1369.86,717.31C1369.86,677.459 1344.96,637.609 1305.11,622.665L1075.96,542.964L1075.96,-254.047L1235.37,-199.253C1245.33,-194.271 1260.27,-194.271 1270.24,-194.271C1325.03,-194.271 1369.86,-239.103 1369.86,-293.898L1369.86,-592.777C1369.86,-632.628 1344.96,-667.497 1305.11,-682.441L1075.96,-767.123L1075.96,-1554.17C1075.96,-1603.99 1036.11,-1648.82 986.301,-1648.82C936.488,-1648.82 891.656,-1603.99 891.656,-1554.17L891.656,-831.88L478.207,-986.301L478.207,-1773.35C478.207,-1823.16 433.375,-1868 383.562,-1868C333.748,-1868 293.898,-1823.16 293.898,-1773.35L293.898,-1051.06L134.496,-1110.83C124.533,-1115.82 109.589,-1115.82 99.626,-1115.82C44.832,-1115.82 -0,-1070.98 -0,-1016.19L-0,-717.31C-0,-677.459 24.907,-637.609 64.757,-622.665L293.898,-542.964L293.898,254.047L134.496,199.253C124.533,194.271 109.589,194.271 99.626,194.271C44.832,194.271 -0,239.103 -0,293.898L-0,592.777ZM891.656,473.225L478.207,323.786L478.207,-473.225L891.656,-323.786L891.656,473.225Z" style="fill:white;fill-rule:nonzero;"/>
            </g>
        </g>
    </g>
    <g transform="matrix(0.766246,0,0,0.766246,6.60316,14.7048)">
        <text x="20.085px" y="59.508px" style="font-family:'SourceSansPro-Regular', 'Source Sans Pro', sans-serif;font-size:10px;fill:white;">A# Minor</text>
    </g>
</svg>
