<?xml version="1.0" encoding="UTF-8" standalone="no"?>
<!DOCTYPE svg PUBLIC "-//W3C//DTD SVG 1.1//EN" "http://www.w3.org/Graphics/SVG/1.1/DTD/svg11.dtd">
<svg width="100%" height="100%" viewBox="0 0 72 72" version="1.1" xmlns="http://www.w3.org/2000/svg" xmlns:xlink="http://www.w3.org/1999/xlink" xml:space="preserve" xmlns:serif="http://www.serif.com/" style="fill-rule:evenodd;clip-rule:evenodd;stroke-linejoin:round;stroke-miterlimit:2;">
    <rect x="0" y="0" width="72" height="72" style="fill:rgb(0,63,122);"/>
    <g id="chromatic-down.svg" transform="matrix(0.0309278,0,0,0.0309278,36,30.9138)">
        <g transform="matrix(1,0,0,1,-485,-480)">
            <g transform="matrix(1,0,0,1,10,0)">
                <path d="M498,728C498,720.667 500,714.667 504,710C510,702 518,698 528,698C535.333,698 541.333,700 546,704L658,788L658,434C637.333,428 620.5,416.333 607.5,399C594.5,381.667 588,361.667 588,339C588,311.667 597.667,288.333 617,269C636.333,249.667 659.667,240 687,240C714.333,240 737.833,249.667 757.5,269C777.167,288.333 787,311.667 787,339C787,361.667 780.5,381.667 767.5,399C754.5,416.333 737.667,428 717,434L717,788L829,704C834.333,700 840.333,698 847,698C857,698 865,702 871,710C875,714.667 877,720.667 877,728C877,738 873,746 865,752L705,872C700.333,876 694.333,878 687,878C681,878 675.333,876 670,872L510,752C502,746 498,738 498,728ZM82,415C84,412.333 86.667,410.333 90,409L107,403C110.333,401.667 112,399 112,395L112,313C112,309.667 110.833,307.333 108.5,306C106.167,304.667 103.667,304.333 101,305C99.667,305.667 97.667,306 95,306C90.333,306 86.5,304.333 83.5,301C80.5,297.667 79,293.667 79,289L79,259C79,255.667 80,252.5 82,249.5C84,246.5 86.667,244.333 90,243L107,237C110.333,235.667 112,233.333 112,230L112,130C112,125.333 113.833,121.333 117.5,118C121.167,114.667 125.333,113 130,113C134.667,113.667 138.5,115.5 141.5,118.5C144.5,121.5 146,125.333 146,130L146,213C146,216.333 147.167,218.667 149.5,220C151.833,221.333 154.333,221.667 157,221L207,204C210.333,202.667 212,200 212,196L212,97C212,92.333 213.667,88.333 217,85C220.333,81.667 224.667,80 230,80C234.667,80 238.5,81.667 241.5,85C244.5,88.333 246,92.333 246,97L246,180C246,182.667 247.167,184.667 249.5,186C251.833,187.333 254.333,187.667 257,187L262,186C266.667,186 270.5,187.667 273.5,191C276.5,194.333 278,198.333 278,203L278,235C278,238.333 277,241.333 275,244C273,246.667 270.667,248.667 268,250L251,256C247.667,257.333 246,260 246,264L246,345C246,348.333 247.167,350.667 249.5,352C251.833,353.333 254.333,353.667 257,353C258.333,352.333 260.333,352 263,352C267,352 270.5,353.667 273.5,357C276.5,360.333 278,364.333 278,369L278,400C278,403.333 277,406.5 275,409.5C273,412.5 270.667,414.667 268,416L251,422C247.667,423.333 246,425.667 246,429L246,546C246,550 244.5,553.667 241.5,557C238.5,560.333 234.667,562 230,562C224.667,562 220.333,560.333 217,557C213.667,553.667 212,549.667 212,545L212,446C212,442.667 210.833,440.333 208.5,439C206.167,437.667 203.667,437.333 201,438L151,455C147.667,456.333 146,459 146,463L146,579C146,583.667 144.167,587.667 140.5,591C136.833,594.333 132.667,596 128,596C123.333,595.333 119.5,593.5 116.5,590.5C113.5,587.5 112,583.667 112,579L112,479C112,476.333 110.833,474.333 108.5,473C106.167,471.667 103.667,471.333 101,472L96,473C91.333,473 87.333,471.333 84,468C80.667,464.667 79,460.667 79,456L79,424C79,420.667 80,417.667 82,415ZM149.5,385C151.833,386.333 154.333,386.667 157,386L207,370C210.333,368.667 212,366 212,362L212,280C212,277.333 210.833,275.333 208.5,274C206.167,272.667 203.667,272.333 201,273L151,288C147.667,289.333 146,292 146,296L146,379C146,381.667 147.167,383.667 149.5,385ZM343,105C346.333,101.667 350.667,100 356,100C363.333,100 369.667,101.5 375,104.5C380.333,107.5 383,111.333 383,116L376,343C376,350.333 380,354 388,354C394,354 401.333,351.667 410,347C416.667,342.333 425,338.833 435,336.5C445,334.167 453,333 459,333C479.667,333.667 498,341.333 514,356C530,370.667 538,389 538,411C538,438.333 518.667,472.667 480,514C463.333,532.667 440.5,551.5 411.5,570.5C382.5,589.5 364,599 356,599C350.667,599 346.333,597.333 343,594C339.667,590.667 338,586.667 338,582L338,117C338,112.333 339.667,108.333 343,105ZM384,532.5C386.667,536.167 389.667,537.333 393,536C419.667,522 442.667,500.333 462,471C472,455.667 477,439.667 477,423C477,410.333 473.5,399.333 466.5,390C459.5,380.667 451,376 441,376C435.667,376 430.667,377.333 426,380C412,386 401.167,391.333 393.5,396C385.833,400.667 381,407 379,415C375.667,430.333 374,446.333 374,463C374,480.333 375.667,500 379,522C379.667,525.333 381.333,528.833 384,532.5Z" style="fill:white;fill-rule:nonzero;"/>
            </g>
        </g>
    </g>
    <g transform="matrix(1,0,0,1,4.7385,61.228)">
        <text x="0px" y="0px" style="font-family:'SourceSansPro-Regular', 'Source Sans Pro', sans-serif;font-size:9px;fill:white;">Chroma<tspan x="29.817px " y="0px ">t</tspan>ic Down</text>
    </g>
</svg>
