<?xml version="1.0" encoding="UTF-8" standalone="no"?>
<!DOCTYPE svg PUBLIC "-//W3C//DTD SVG 1.1//EN" "http://www.w3.org/Graphics/SVG/1.1/DTD/svg11.dtd">
<svg width="100%" height="100%" viewBox="0 0 72 72" version="1.1" xmlns="http://www.w3.org/2000/svg" xmlns:xlink="http://www.w3.org/1999/xlink" xml:space="preserve" xmlns:serif="http://www.serif.com/" style="fill-rule:evenodd;clip-rule:evenodd;stroke-linejoin:round;stroke-miterlimit:2;">
    <rect x="0" y="0" width="72" height="72" style="fill:rgb(0,63,122);"/>
    <g id="chromatic-up.svg" transform="matrix(0.0309278,0,0,0.0309278,36,27.774)">
        <g transform="matrix(1,0,0,1,-485,-480)">
            <g transform="matrix(1,0,0,1,10,0)">
                <path d="M619.5,690.5C599.833,670.833 590,647.333 590,620C590,597.333 596.5,577.333 609.5,560C622.5,542.667 639.333,531 660,525L660,170L548,254C543.333,258 537.333,260 530,260C520,260 512,256 506,248C502,242.667 500,236.667 500,230C500,220 504,212 512,206L672,86C678,82 684,80 690,80C697.333,80 703.333,82 708,86L868,206C876,212 880,220 880,230C880,236.667 878,242.667 874,248C868,256 860,260 850,260C843.333,260 837.333,258 832,254L720,170L720,525C740.667,531 757.5,542.667 770.5,560C783.5,577.333 790,597.333 790,620C790,647.333 780.167,670.833 760.5,690.5C740.833,710.167 717.333,720 690,720C662.667,720 639.167,710.167 619.5,690.5ZM83,696C85,693.333 87.667,691.333 91,690L108,684C111.333,682.667 113,680 113,676L113,594C113,590.667 111.833,588.333 109.5,587C107.167,585.667 104.667,585.333 102,586C100.667,586.667 98.667,587 96,587C91.333,587 87.5,585.333 84.5,582C81.5,578.667 80,574.667 80,570L80,539C80,535.667 81,532.5 83,529.5C85,526.5 87.667,524.333 91,523L108,517C111.333,515.667 113,513.333 113,510L113,410C113,405.333 114.833,401.333 118.5,398C122.167,394.667 126.333,393 131,393C135.667,393.667 139.5,395.5 142.5,398.5C145.5,401.5 147,405.333 147,410L147,493C147,496.333 148.167,498.667 150.5,500C152.833,501.333 155.333,501.667 158,501L208,484C211.333,482.667 213,480 213,476L213,377C213,372.333 214.667,368.333 218,365C221.333,361.667 225.667,360 231,360C235.667,360 239.5,361.667 242.5,365C245.5,368.333 247,372.333 247,377L247,460C247,462.667 248.167,464.667 250.5,466C252.833,467.333 255.333,467.667 258,467L263,466C267.667,466 271.667,467.667 275,471C278.333,474.333 280,478.333 280,483L280,515C280,518.333 279,521.333 277,524C275,526.667 272.333,528.667 269,530L252,536C248.667,537.333 247,540 247,544L247,626C247,629.333 248.167,631.667 250.5,633C252.833,634.333 255.333,634.667 258,634C259.333,633.333 261.333,633 264,633C268.667,633 272.5,634.667 275.5,638C278.5,641.333 280,645.333 280,650L280,681C280,684.333 279,687.5 277,690.5C275,693.5 272.333,695.667 269,697L252,703C248.667,704.333 247,706.667 247,710L247,827C247,831 245.5,834.667 242.5,838C239.5,841.333 235.667,843 231,843C225.667,843 221.333,841.333 218,838C214.667,834.667 213,830.667 213,826L213,727C213,723.667 211.833,721.333 209.5,720C207.167,718.667 204.667,718.333 202,719L152,736C148.667,737.333 147,740 147,744L147,860C147,864.667 145.167,868.667 141.5,872C137.833,875.333 133.667,877 129,877C124.333,876.333 120.5,874.5 117.5,871.5C114.5,868.5 113,864.667 113,860L113,760C113,757.333 111.833,755.333 109.5,754C107.167,752.667 104.667,752.333 102,753L97,754C92.333,754 88.333,752.333 85,749C81.667,745.667 80,741.667 80,737L80,705C80,701.667 81,698.667 83,696ZM150.5,666C152.833,667.333 155.333,667.667 158,667L208,651C211.333,649.667 213,647 213,643L213,560C213,557.333 211.833,555.333 209.5,554C207.167,552.667 204.667,552.333 202,553L152,569C148.667,570.333 147,573 147,577L147,660C147,662.667 148.167,664.667 150.5,666ZM345,385C348.333,381.667 352.667,380 358,380C365.333,380 371.667,381.5 377,384.5C382.333,387.5 385,391.333 385,396L378,624C378,631.333 382,635 390,635C396,635 403.333,632.667 412,628C418.667,623.333 427,619.833 437,617.5C447,615.167 455,614 461,614C481.667,614.667 500,622.333 516,637C532,651.667 540,670 540,692C540,719.333 520.667,753.667 482,795C465.333,813.667 442.5,832.5 413.5,851.5C384.5,870.5 366,880 358,880C352.667,880 348.333,878.333 345,875C341.667,871.667 340,867.667 340,863L340,397C340,392.333 341.667,388.333 345,385ZM386,813.5C388.667,817.167 391.667,818.333 395,817C421.667,803 444.667,781.333 464,752C474,736.667 479,720.667 479,704C479,691.333 475.5,680.333 468.5,671C461.5,661.667 453,657 443,657C437.667,657 432.667,658.333 428,661C414,667 403.167,672.333 395.5,677C387.833,681.667 383,688 381,696C377.667,711.333 376,727.333 376,744C376,761.333 377.667,781 381,803C381.667,806.333 383.333,809.833 386,813.5Z" style="fill:white;fill-rule:nonzero;"/>
            </g>
        </g>
    </g>
    <g transform="matrix(1,0,0,1,10.0935,61.228)">
        <text x="0px" y="0px" style="font-family:'SourceSansPro-Regular', 'Source Sans Pro', sans-serif;font-size:9px;fill:white;">Chroma<tspan x="29.817px " y="0px ">t</tspan>ic Up</text>
    </g>
</svg>
