<?xml version="1.0" encoding="UTF-8" standalone="no"?>
<!DOCTYPE svg PUBLIC "-//W3C//DTD SVG 1.1//EN" "http://www.w3.org/Graphics/SVG/1.1/DTD/svg11.dtd">
<svg width="100%" height="100%" viewBox="0 0 72 72" version="1.1" xmlns="http://www.w3.org/2000/svg" xmlns:xlink="http://www.w3.org/1999/xlink" xml:space="preserve" xmlns:serif="http://www.serif.com/" style="fill-rule:evenodd;clip-rule:evenodd;stroke-linejoin:round;stroke-miterlimit:2;">
    <rect x="0" y="0" width="72" height="72" style="fill:rgb(122,0,0);"/>
    <g transform="matrix(1,0,0,1,0,1.62621)">
        <g transform="matrix(0.0409857,0,0,0.0409857,16.5318,4.29726)">
            <g id="Clef.svg">
                <g>
                    <g>
                        <path d="M457,955C429.667,955 405,950.5 383,941.5C361,932.5 344.333,917.667 333,897C325.667,885.667 322,872.333 322,857C322,837.667 327.833,821.167 339.5,807.5C351.167,793.833 367,787 387,787C405.667,787 421,793.667 433,807C445,820.333 451,836 451,854C451,868.667 446.333,881.667 437,893C449,894.333 457.333,895 462,895C510,895 533,868.667 531,816C529,798 524.667,773.667 518,743C503.333,744.333 492.333,745 485,745C445.667,745 408,737.667 372,723C336,708.333 306.5,686.5 283.5,657.5C260.5,628.5 249,593.667 249,553C249,501.667 266.167,455.667 300.5,415C334.833,374.333 378.333,338.667 431,308L423,269C412.333,225 407,190.667 407,166C407,160 407.667,151 409,139C413.667,107 427.167,78.5 449.5,53.5C471.833,28.5 498.667,12 530,4C532,3.333 535.333,3 540,3C554,3 565.333,5.667 574,11C595.333,23 611.333,40.5 622,63.5C632.667,86.5 638,111.333 638,138C638,176.667 627,212.333 605,245C583,277.667 553.333,311.667 516,347L542,468C576,468 607.333,476.333 636,493C664.667,509.667 683,533 691,563C694.333,575 696,586.333 696,597C696,625.667 686.333,651.833 667,675.5C647.667,699.167 623.667,716 595,726C598.333,742 601.333,758.5 604,775.5C606.667,792.5 608,808.667 608,824C608,858 599,886.167 581,908.5C563,930.833 536.667,945 502,951C483.333,953.667 468.333,955 457,955ZM506,678L475,526C449.667,530.667 429.333,539 414,551C407.333,555.667 402.667,560.833 400,566.5C397.333,572.167 395.167,577 393.5,581C391.833,585 389,586.667 385,586C379.667,584 377,579.333 377,572C377,569.333 378,563 380,553C391.333,523 420,498.667 466,480L451,403C377,463 340,517 340,565C340,585.667 347.333,605.667 362,625C376,642.333 394.333,655.333 417,664C439.667,672.667 463.333,677.333 488,678L506,678ZM612.5,631.5C620.167,620.5 624,608.667 624,596C624,579.333 617.333,565.167 604,553.5C590.667,541.833 574.333,534 555,530L582,658C594.667,651.333 604.833,642.5 612.5,631.5ZM547.5,216.5C560.5,201.5 570,185 576,167C578.667,156.333 580,148.333 580,143C580,129 576.833,115.833 570.5,103.5C564.167,91.167 555.333,82 544,76C525.333,83.333 510.167,95.167 498.5,111.5C486.833,127.833 481,146.667 481,168C481,182.667 484.333,203.333 491,230L498,263C518,247 534.5,231.5 547.5,216.5Z" style="fill:white;fill-rule:nonzero;"/>
                    </g>
                </g>
            </g>
        </g>
        <g transform="matrix(1,0,0,1,0.452526,-3.89189)">
            <g transform="matrix(1,0,0,1,16.372,60.219)">
                <text x="0px" y="0px" style="font-family:'SourceSansPro-Regular', 'Source Sans Pro', sans-serif;font-size:10px;fill:white;">Clefs and</text>
            </g>
            <g>
                <g transform="matrix(1,0,0,1,19.002,70.219)">
                    <text x="0px" y="0px" style="font-family:'SourceSansPro-Regular', 'Source Sans Pro', sans-serif;font-size:10px;fill:white;">Oct</text>
                </g>
                <g transform="matrix(1,0,0,1,33.272,70.219)">
                    <text x="0px" y="0px" style="font-family:'SourceSansPro-Regular', 'Source Sans Pro', sans-serif;font-size:10px;fill:white;">aves</text>
                </g>
            </g>
        </g>
    </g>
</svg>
