<?xml version="1.0" encoding="UTF-8" standalone="no"?>
<!DOCTYPE svg PUBLIC "-//W3C//DTD SVG 1.1//EN" "http://www.w3.org/Graphics/SVG/1.1/DTD/svg11.dtd">
<svg width="100%" height="100%" viewBox="0 0 72 72" version="1.1" xmlns="http://www.w3.org/2000/svg" xmlns:xlink="http://www.w3.org/1999/xlink" xml:space="preserve" xmlns:serif="http://www.serif.com/" style="fill-rule:evenodd;clip-rule:evenodd;stroke-linecap:round;stroke-linejoin:round;stroke-miterlimit:1.5;">
    <rect x="0" y="0" width="72" height="72" style="fill:rgb(0,63,122);"/>
    <g transform="matrix(1,0,0,1,0.0004,-6.58229)">
        <g transform="matrix(0.0393773,0,0,0.0393773,17.0985,12.1022)">
            <g id="triplet.svg">
                <g>
                    <g>
                        <path d="M134.5,867.5C124.833,859.167 120,847.667 120,833C120,817.667 125.167,802.667 135.5,788C145.833,773.333 160.167,761.833 178.5,753.5C196.833,745.167 217.333,741.667 240,743L240,418L840,320L840,697C838.667,719 826.333,739 803,757C779.667,775 755.667,784 731,784C716.333,784 704.167,780.167 694.5,772.5C684.833,764.833 680,753.667 680,739C680,723.667 685.167,708.667 695.5,694C705.833,679.333 720.167,667.833 738.5,659.5C756.833,651.167 777.333,647.667 800,649L800,400L560,441L560,736C559.333,750.667 553.333,764.833 542,778.5C530.667,792.167 516.667,803.167 500,811.5C483.333,819.833 467,824 451,824C436.333,824 424.167,820 414.5,812C404.833,804 400,792.667 400,778C400,762.667 405.167,747.667 415.5,733C425.833,718.333 440.167,706.833 458.5,698.5C476.833,690.167 497.333,686.667 520,688L520,448L280,488L280,791C279.333,805.667 273.333,819.833 262,833.5C250.667,847.167 236.667,858.333 220,867C203.333,875.667 187,880 171,880C156.333,880 144.167,875.833 134.5,867.5ZM434.5,306.5C422.833,297.5 417,287 417,275L419,260C421,253.333 424.667,248.167 430,244.5C435.333,240.833 441.333,239 448,239C455.333,239 461.833,241.5 467.5,246.5C473.167,251.5 476,257.667 476,265C476,277 470,284.667 458,288C457.333,289.333 456.5,290.5 455.5,291.5C454.5,292.5 454,293.667 454,295C454,296.333 454.667,297.667 456,299C466,303 474,305 480,305C488,305 496,302 504,296C512,290 519.333,279.667 526,265C531.333,258.333 534,250 534,240C534,231.333 532,224 528,218C524,212 518.667,209 512,209L491,209C486.333,209 482.333,208 479,206C475.667,204 474,201 474,197L474.5,195.5C474.833,190.5 475.333,189.667 476,193C479.333,184.333 486.333,180 497,180L528,180C535.333,180 544,177 554,171C564,165 571,156.667 575,146C577.667,139.333 579,133 579,127C579,121 577.5,115.333 574.5,110C571.5,104.667 567.333,101 562,99L556,99C550.667,99 544.667,101.167 538,105.5C531.333,109.833 528,115 528,121C528,125 528.667,127.667 530,129L530,133C528.667,139.667 525.333,145.5 520,150.5C514.667,155.5 508.667,158 502,158C494.667,158 488.167,155.333 482.5,150C476.833,144.667 474,138.333 474,131C474,115.667 482.5,103.333 499.5,94C516.5,84.667 536,80 558,80C578.667,80 594.667,86.667 606,100C617.333,113.333 623,127 623,141C623,153.667 619.667,165 613,175C606.333,185 592.667,194.333 572,203C568,205 566,207.667 566,211C566,211.667 566.333,212.333 567,213L568,214C571.333,217.333 574.833,222.333 578.5,229C582.167,235.667 584,243.333 584,252C583.333,253.333 583,256.667 583,262C579.667,277.333 571,290.833 557,302.5C543,314.167 521,320 491,320C465,320 446.167,315.5 434.5,306.5Z" style="fill:white;fill-rule:nonzero;"/>
                    </g>
                </g>
            </g>
        </g>
        <g transform="matrix(1.10264,0,0,1.05957,-5.40284,1.54096)">
            <ellipse cx="37.548" cy="29.265" rx="19.045" ry="19.819" style="fill:rgb(235,235,235);fill-opacity:0;stroke:white;stroke-width:0.81px;"/>
        </g>
        <g transform="matrix(0.995236,-0.0044353,-0.0044353,0.995871,0.449481,0.418484)">
            <path d="M21.824,16.877L52.258,45.213" style="fill:none;stroke:white;stroke-width:0.88px;"/>
        </g>
        <g transform="matrix(0.983667,0.0148301,0.0148301,0.986535,-0.0392643,0.0356506)">
            <path d="M18.968,45.213L50.175,16.877" style="fill:none;stroke:white;stroke-width:0.87px;"/>
        </g>
    </g>
    <g transform="matrix(1,0,0,1,15.417,61.4084)">
        <g>
            <g>
                <text x="0px" y="0px" style="font-family:'SourceSansPro-Regular', 'Source Sans Pro', sans-serif;font-size:9px;fill:white;">End T<tspan x="20.871px " y="0px ">u</tspan>plet</text>
            </g>
        </g>
    </g>
</svg>
