<?xml version="1.0" encoding="UTF-8" standalone="no"?>
<!DOCTYPE svg PUBLIC "-//W3C//DTD SVG 1.1//EN" "http://www.w3.org/Graphics/SVG/1.1/DTD/svg11.dtd">
<svg width="100%" height="100%" viewBox="0 0 72 72" version="1.1" xmlns="http://www.w3.org/2000/svg" xmlns:xlink="http://www.w3.org/1999/xlink" xml:space="preserve" xmlns:serif="http://www.serif.com/" style="fill-rule:evenodd;clip-rule:evenodd;stroke-linejoin:round;stroke-miterlimit:2;">
    <rect x="0" y="0" width="72" height="72" style="fill:rgb(215,106,0);"/>
    <g transform="matrix(1,0,0,1,6.035,43.12)">
        <text x="0px" y="0px" style="font-family:'SourceSansPro-Regular', 'Source Sans Pro', sans-serif;font-size:10px;fill:white;">Bars, Barlines,</text>
        <text x="10.62px" y="10px" style="font-family:'SourceSansPro-Regular', 'Source Sans Pro', sans-serif;font-size:10px;fill:white;">Br<tspan x="19.73px " y="10px ">a</tspan>ck<tspan x="34.1px 38.96px 42.24px " y="10px 10px 10px ">ets</tspan>,</text>
        <text x="13.125px" y="20px" style="font-family:'SourceSansPro-Regular', 'Source Sans Pro', sans-serif;font-size:10px;fill:white;">Repe<tspan x="34.045px 38.945px 42.225px " y="20px 20px 20px ">ats</tspan></text>
    </g>
    <g id="folder-icon.svg" transform="matrix(0.0221674,0,0,0.0221674,36,17.5175)">
        <g transform="matrix(1,0,0,1,-485,-480)">
            <g transform="matrix(1,0,0,1,10,0)">
                <path d="M126,834C122,830 120,825.333 120,820C120,814 121.833,809.167 125.5,805.5C129.167,801.833 134,800 140,800L580,800C585.333,800 590,798 594,794C598,790 600,785.333 600,780L600,690C600,684.667 598,680 594,676C590,672 585.333,670 580,670L140,670C134.667,670 130,668 126,664C122,660 120,655.333 120,650C120,644 121.833,639.167 125.5,635.5C129.167,631.833 134,630 140,630L580,630C585.333,630 590,628 594,624C598,620 600,615.333 600,610L600,520C600,514.667 598,510 594,506C590,502 585.333,500 580,500L140,500C134.667,500 130,498 126,494C122,490 120,485.333 120,480C120,474 121.833,469.167 125.5,465.5C129.167,461.833 134,460 140,460L580,460C585.333,460 590,458 594,454C598,450 600,445.333 600,440L600,350C600,344.667 598,340 594,336C590,332 585.333,330 580,330L140,330C134.667,330 130,328 126,324C122,320 120,315.333 120,310C120,304 121.833,299.167 125.5,295.5C129.167,291.833 134,290 140,290L580,290C585.333,290 590,288 594,284C598,280 600,275.333 600,270L600,180C600,174.667 598,170 594,166C590,162 585.333,160 580,160L140,160C134.667,160 130,158 126,154C122,150 120,145.333 120,140C120,134 121.833,129.167 125.5,125.5C129.167,121.833 134,120 140,120L840,120C851.333,120 860.833,123.833 868.5,131.5C876.167,139.167 880,148.667 880,160L880,800C880,810.667 876.167,820 868.5,828C860.833,836 851.333,840 840,840L140,840C134.667,840 130,838 126,834ZM646,794C650,798 654.667,800 660,800L740,800C745.333,800 750,798 754,794C758,790 760,785.333 760,780L760,690C760,684.667 758,680 754,676C750,672 745.333,670 740,670L660,670C654.667,670 650,672 646,676C642,680 640,684.667 640,690L640,780C640,785.333 642,790 646,794ZM646,624C650,628 654.667,630 660,630L740,630C745.333,630 750,628 754,624C758,620 760,615.333 760,610L760,520C760,514.667 758,510 754,506C750,502 745.333,500 740,500L660,500C654.667,500 650,502 646,506C642,510 640,514.667 640,520L640,610C640,615.333 642,620 646,624ZM646,454C650,458 654.667,460 660,460L740,460C745.333,460 750,458 754,454C758,450 760,445.333 760,440L760,350C760,344.667 758,340 754,336C750,332 745.333,330 740,330L660,330C654.667,330 650,332 646,336C642,340 640,344.667 640,350L640,440C640,445.333 642,450 646,454ZM646,284C650,288 654.667,290 660,290L740,290C745.333,290 750,288 754,284C758,280 760,275.333 760,270L760,180C760,174.667 758,170 754,166C750,162 745.333,160 740,160L660,160C654.667,160 650,162 646,166C642,170 640,174.667 640,180L640,270C640,275.333 642,280 646,284Z" style="fill:white;fill-rule:nonzero;"/>
            </g>
        </g>
    </g>
</svg>
