<?xml version="1.0" encoding="UTF-8" standalone="no"?>
<!DOCTYPE svg PUBLIC "-//W3C//DTD SVG 1.1//EN" "http://www.w3.org/Graphics/SVG/1.1/DTD/svg11.dtd">
<svg width="100%" height="100%" viewBox="0 0 72 72" version="1.1" xmlns="http://www.w3.org/2000/svg" xmlns:xlink="http://www.w3.org/1999/xlink" xml:space="preserve" xmlns:serif="http://www.serif.com/" style="fill-rule:evenodd;clip-rule:evenodd;stroke-linejoin:round;stroke-miterlimit:2;">
    <rect x="0" y="0" width="72" height="72" style="fill:rgb(0,63,122);"/>
    <g transform="matrix(1,0,0,1,8.3295,61.228)">
        <g>
            <text x="0px" y="0px" style="font-family:'SourceSansPro-Regular', 'Source Sans Pro', sans-serif;font-size:9px;fill:white;">F<tspan x="4.32px " y="0px ">o</tspan>rc<tspan x="16.146px " y="0px ">e</tspan> Dur<tspan x="35.748px 40.158px " y="0px 0px ">at</tspan>ion</text>
        </g>
    </g>
    <g id="force-duration.svg" transform="matrix(0.0301024,0,0,0.0301024,36,31.964)">
        <g transform="matrix(1,0,0,1,-485,-480)">
            <g transform="matrix(1,0,0,1,10,0)">
                <path d="M518.5,911.5C512.833,905.833 510,898.667 510,890L510,880L390,880C381.333,880 374.167,877 368.5,871C362.833,865 360,857.667 360,849C360,841 363,834.167 369,828.5C375,822.833 382.333,820 391,820L510,820L510,664C490.667,674.667 470.667,680 450,680L370,680C337.333,680 309.167,668.167 285.5,644.5C261.833,620.833 250,592.667 250,560L250,160C250,126.667 261.833,98.333 285.5,75C309.167,51.667 337.333,40 370,40L450,40C483.333,40 511.667,51.667 535,75C558.333,98.333 570,126.667 570,160L570,200L620,200C625.333,200 630,202 634,206C638,210 640,214.667 640,220L640,240C640,245.333 638,250 634,254C630,258 625.333,260 620,260L460,260C454.667,260 450,258 446,254C442,250 440,245.333 440,240L440,220C440,214.667 442,210 446,206C450,202 454.667,200 460,200L510,200L510,160C510,143.333 504.167,129.167 492.5,117.5C480.833,105.833 466.667,100 450,100L370,100C353.333,100 339.167,105.833 327.5,117.5C315.833,129.167 310,143.333 310,160L310,560C310,576.667 315.833,590.833 327.5,602.5C339.167,614.167 353.333,620 370,620L450,620C466.667,620 480.833,614.167 492.5,602.5C504.167,590.833 510,576.667 510,560L510,520L460,520C454.667,520 450,518 446,514C442,510 440,505.333 440,500L440,480C440,474.667 442,470 446,466C450,462 454.667,460 460,460L620,460C625.333,460 630,462 634,466C638,470 640,474.667 640,480L640,500C640,505.333 638,510 634,514C630,518 625.333,520 620,520L570,520L570,820L689,820C697.667,820 705,822.833 711,828.5C717,834.167 720,841 720,849C720,857.667 717.167,865 711.5,871C705.833,877 698.667,880 690,880L570,880L570,890C570,898.667 567.167,905.833 561.5,911.5C555.833,917.167 548.667,920 540,920C531.333,920 524.167,917.167 518.5,911.5Z" style="fill:white;fill-rule:nonzero;"/>
            </g>
        </g>
    </g>
</svg>
