<?xml version="1.0" encoding="UTF-8" standalone="no"?>
<!DOCTYPE svg PUBLIC "-//W3C//DTD SVG 1.1//EN" "http://www.w3.org/Graphics/SVG/1.1/DTD/svg11.dtd">
<svg width="100%" height="100%" viewBox="0 0 72 72" version="1.1" xmlns="http://www.w3.org/2000/svg" xmlns:xlink="http://www.w3.org/1999/xlink" xml:space="preserve" xmlns:serif="http://www.serif.com/" style="fill-rule:evenodd;clip-rule:evenodd;stroke-linejoin:round;stroke-miterlimit:2;">
    <rect x="0" y="0" width="72" height="72" style="fill:rgb(102,7,52);"/>
    <g transform="matrix(1.63679,0,0,1.63679,-41.9051,26.2942)">
        <text x="33.832px" y="13.781px" style="font-family:'Bravura';font-size:24px;fill:white;"></text>
        <text x="54.28px" y="-5.77px" style="font-family:'Bravura';font-size:24px;fill:white;"></text>
    </g>
    <g transform="matrix(0.419819,0,0,0.419819,25.1105,41.195)">
        <g transform="matrix(20,0,0,20,26.5486,47.3632)">
            <path d="M0.581,-0.006C0.568,-0.001 0.553,0.003 0.538,0.006C0.522,0.01 0.506,0.012 0.491,0.012C0.465,0.012 0.443,0.008 0.426,-0C0.408,-0.008 0.394,-0.019 0.383,-0.033C0.372,-0.047 0.364,-0.064 0.359,-0.084C0.354,-0.104 0.352,-0.126 0.352,-0.15L0.352,-0.419L0.178,-0.419L0.178,-0L0.096,-0L0.096,-0.419L0.03,-0.419L0.03,-0.481L0.096,-0.486L0.096,-0.563C0.096,-0.613 0.108,-0.652 0.131,-0.681C0.154,-0.71 0.189,-0.724 0.238,-0.724C0.253,-0.724 0.268,-0.723 0.281,-0.72C0.295,-0.717 0.308,-0.713 0.319,-0.708L0.301,-0.645C0.283,-0.653 0.265,-0.657 0.246,-0.657C0.201,-0.657 0.178,-0.626 0.178,-0.563L0.178,-0.486L0.356,-0.486L0.366,-0.622L0.434,-0.622L0.434,-0.486L0.566,-0.486L0.566,-0.419L0.434,-0.419L0.434,-0.149C0.434,-0.119 0.44,-0.096 0.451,-0.08C0.462,-0.063 0.482,-0.055 0.51,-0.055C0.519,-0.055 0.528,-0.056 0.538,-0.059C0.548,-0.062 0.557,-0.065 0.565,-0.068L0.581,-0.006Z" style="fill:white;fill-rule:nonzero;"/>
        </g>
        <text x="11.909px" y="47.363px" style="font-family:'SourceSansPro-Regular', 'Source Sans Pro', sans-serif;font-size:20px;fill:white;">Li</text>
    </g>
</svg>
