<?xml version="1.0" encoding="UTF-8" standalone="no"?>
<!DOCTYPE svg PUBLIC "-//W3C//DTD SVG 1.1//EN" "http://www.w3.org/Graphics/SVG/1.1/DTD/svg11.dtd">
<svg width="100%" height="100%" viewBox="0 0 72 72" version="1.1" xmlns="http://www.w3.org/2000/svg" xmlns:xlink="http://www.w3.org/1999/xlink" xml:space="preserve" xmlns:serif="http://www.serif.com/" style="fill-rule:evenodd;clip-rule:evenodd;stroke-linejoin:round;stroke-miterlimit:2;">
    <rect x="0" y="0" width="72" height="72" style="fill:rgb(0,63,122);"/>
    <g id="Notes.svg" transform="matrix(0.0534834,0,0,0.0534834,34.0181,25.672)">
        <g transform="matrix(1,0,0,1,-485,-480)">
            <g transform="matrix(1,0,0,1,10,0)">
                <path d="M102,858C87.333,843.333 80,825.667 80,805C80,783 87.333,761.667 102,741C114.667,720.333 135,702 163,686C189.667,672 216.333,665 243,665C255.667,665 265.333,665.333 272,666C278.667,666.667 285,668.667 291,672L291,224C291,217.333 293.333,211.667 298,207C302.667,202.333 308.333,200 315,200C322.333,200 328.167,202.167 332.5,206.5C336.833,210.833 339,216.667 339,224L339,741C339,749 337.333,758.333 334,769C330.667,779.667 327,789 323,797C311,820.333 292.333,839.667 267,855C241.667,871.667 207.667,880 165,880C137.667,879.333 116.667,872 102,858ZM642,738C628,722.667 621,705 621,685C621,663 628,641.667 642,621C655.333,600.333 676,582 704,566C730.667,552 757.333,545 784,545C796.667,545 806.333,545.333 813,546C819.667,546.667 826,548.667 832,552L832,104C832,97.333 834.333,91.667 839,87C843.667,82.333 849.333,80 856,80C863.333,80 869.167,82.167 873.5,86.5C877.833,90.833 880,96.667 880,104L880,621C880,629 878.333,638.333 875,649C871.667,659.667 868,669 864,677C852,700.333 833.333,719.667 808,735C782.667,751.667 748.667,760 706,760C679.333,759.333 658,752 642,738Z" style="fill:white;fill-rule:nonzero;"/>
            </g>
        </g>
    </g>
    <g transform="matrix(1,0,0,1,23.655,61.7897)">
        <g>
            <text x="0px" y="0px" style="font-family:'SourceSansPro-Regular', 'Source Sans Pro', sans-serif;font-size:10px;fill:white;">No<tspan x="11.72px 14.96px " y="0px 0px ">te</tspan>s</text>
        </g>
    </g>
</svg>
