<?xml version="1.0" encoding="UTF-8" standalone="no"?>
<!DOCTYPE svg PUBLIC "-//W3C//DTD SVG 1.1//EN" "http://www.w3.org/Graphics/SVG/1.1/DTD/svg11.dtd">
<svg width="100%" height="100%" viewBox="0 0 72 72" version="1.1" xmlns="http://www.w3.org/2000/svg" xmlns:xlink="http://www.w3.org/1999/xlink" xml:space="preserve" xmlns:serif="http://www.serif.com/" style="fill-rule:evenodd;clip-rule:evenodd;stroke-linejoin:round;stroke-miterlimit:2;">
    <rect x="0" y="0" width="72" height="72" style="fill:rgb(38,181,94);"/>
    <g transform="matrix(0.863033,0,0,0.863033,-10.8457,31.6774)">
        <g transform="matrix(24,0,0,24,33.8323,13.7806)">
            <path d="M0.161,0.015C0.263,0.015 0.364,-0.038 0.364,-0.141C0.364,-0.214 0.306,-0.257 0.269,-0.277C0.209,-0.309 0.138,-0.32 0.138,-0.36C0.138,-0.413 0.2,-0.445 0.246,-0.445C0.265,-0.445 0.313,-0.448 0.313,-0.419C0.313,-0.403 0.291,-0.392 0.291,-0.364C0.291,-0.334 0.313,-0.321 0.344,-0.321C0.377,-0.321 0.399,-0.345 0.399,-0.379C0.399,-0.461 0.313,-0.479 0.252,-0.479C0.15,-0.479 0.065,-0.435 0.065,-0.346C0.065,-0.261 0.14,-0.22 0.2,-0.198C0.277,-0.17 0.298,-0.164 0.298,-0.112C0.298,-0.05 0.22,-0.024 0.173,-0.024C0.135,-0.024 0.078,-0.032 0.078,-0.064C0.078,-0.084 0.104,-0.077 0.104,-0.122C0.104,-0.145 0.085,-0.163 0.058,-0.163C0.013,-0.163 0,-0.125 0,-0.102C0,0.003 0.101,0.015 0.161,0.015Z" style="fill:white;fill-rule:nonzero;"/>
        </g>
        <g transform="matrix(24,0,0,24,44.4883,13.7806)">
            <path d="M0.507,-0.468L0.419,-0.463L0.345,-0.174C0.328,-0.109 0.276,-0.049 0.214,-0.049C0.16,-0.046 0.119,-0.084 0.133,-0.135L0.222,-0.468L0.054,-0.457L0.045,-0.425L0.091,-0.425C0.116,-0.425 0.12,-0.406 0.115,-0.386L0.05,-0.145C0.027,-0.058 0.076,0.008 0.16,0.008C0.228,0.008 0.274,-0.029 0.33,-0.076C0.33,-0.03 0.333,0.015 0.381,0.015C0.457,0.015 0.531,-0.073 0.567,-0.131L0.539,-0.149C0.492,-0.077 0.449,-0.035 0.423,-0.035C0.411,-0.035 0.398,-0.036 0.398,-0.056C0.398,-0.075 0.421,-0.159 0.507,-0.468Z" style="fill:white;fill-rule:nonzero;"/>
        </g>
        <g transform="matrix(24,0,0,24,59.3923,13.7806)">
            <path d="M0.035,-0.101C0.047,-0 0.133,0.007 0.192,0.008C0.326,0.008 0.435,-0.117 0.468,-0.24C0.5,-0.361 0.475,-0.479 0.339,-0.479C0.278,-0.479 0.231,-0.451 0.176,-0.408L0.266,-0.746L0.093,-0.734L0.085,-0.702C0.114,-0.699 0.168,-0.695 0.156,-0.652C0.057,-0.28 0.021,-0.222 0.035,-0.101ZM0.127,-0.227C0.149,-0.307 0.198,-0.436 0.307,-0.436C0.409,-0.436 0.391,-0.313 0.371,-0.237C0.35,-0.158 0.302,-0.028 0.196,-0.028C0.086,-0.028 0.105,-0.142 0.127,-0.227Z" style="fill:white;fill-rule:nonzero;"/>
        </g>
        <g transform="matrix(24,0,0,24,71.3203,13.7806)">
            <path d="M0.017,-0.047C0.017,-0.012 0.044,0.015 0.079,0.015C0.114,0.015 0.142,-0.012 0.142,-0.047C0.142,-0.082 0.114,-0.11 0.079,-0.11C0.044,-0.11 0.017,-0.082 0.017,-0.047Z" style="fill:white;fill-rule:nonzero;"/>
        </g>
    </g>
</svg>
