<?xml version="1.0" standalone="no"?>
<!DOCTYPE svg PUBLIC "-//W3C//DTD SVG 1.1//EN" "http://www.w3.org/Graphics/SVG/1.1/DTD/svg11.dtd" >
<svg xmlns="http://www.w3.org/2000/svg" xmlns:xlink="http://www.w3.org/1999/xlink" version="1.1" viewBox="-10 0 970 960">
   <path fill="currentColor"
d="M221.5 723.5q-8.5 -6.5 -10.5 -16.5l-100 -440q-4 -15 5 -26t25 -11q10 0 18 6.5t10 16.5l71 312l71 -312q2 -10 10 -16.5t18 -6.5q13 0 22 8.5t9 20.5q0 5 -1 8l-100 440q-2 10 -10.5 16.5t-18.5 6.5t-18.5 -6.5zM528.5 328.5q8.5 -8.5 21.5 -8.5h260q13 0 21.5 8.5
t8.5 21.5v260q0 13 -8.5 21.5t-21.5 8.5t-21.5 -8.5t-8.5 -21.5v-140q0 -13 -8.5 -21.5t-21.5 -8.5h-140q-13 0 -21.5 8.5t-8.5 21.5v140q0 13 -8.5 21.5t-21.5 8.5t-21.5 -8.5t-8.5 -21.5v-260q0 -13 8.5 -21.5z" />
</svg>
