<?xml version="1.0" encoding="UTF-8" standalone="no"?>
<!DOCTYPE svg PUBLIC "-//W3C//DTD SVG 1.1//EN" "http://www.w3.org/Graphics/SVG/1.1/DTD/svg11.dtd">
<svg width="100%" height="100%" viewBox="0 0 72 72" version="1.1" xmlns="http://www.w3.org/2000/svg" xmlns:xlink="http://www.w3.org/1999/xlink" xml:space="preserve" xmlns:serif="http://www.serif.com/" style="fill-rule:evenodd;clip-rule:evenodd;stroke-linejoin:round;stroke-miterlimit:2;">
    <rect x="0" y="0" width="72" height="72" style="fill:rgb(102,7,52);"/>
    <g id="copy.svg" transform="matrix(0.0285618,0,0,0.0285618,36,28.3762)">
        <g transform="matrix(1,0,0,1,-485,-480)">
            <g transform="matrix(1,0,0,1,10,0)">
                <path d="M534,726C538,730 540,734.667 540,740C540,745.333 538,750 534,754C530,758 525.333,760 520,760L240,760C234.667,760 230,758 226,754C222,750 220,745.333 220,740C220,734.667 222,730 226,726C230,722 234.667,720 240,720L520,720C525.333,720 530,722 534,726ZM534,626C538,630 540,634.667 540,640C540,645.333 538,650 534,654C530,658 525.333,660 520,660L240,660C234.667,660 230,658 226,654C222,650 220,645.333 220,640C220,634.667 222,630 226,626C230,622 234.667,620 240,620L520,620C525.333,620 530,622 534,626ZM534,526C538,530 540,534.667 540,540C540,545.333 538,550 534,554C530,558 525.333,560 520,560L240,560C234.667,560 230,558 226,554C222,550 220,545.333 220,540C220,534.667 222,530 226,526C230,522 234.667,520 240,520L520,520C525.333,520 530,522 534,526ZM794,126C790,122 785.333,120 780,120L380,120C374.667,120 370,122 366,126C362,130 360,134.667 360,140L360,260L580,260C596.667,260 610.833,265.833 622.5,277.5C634.167,289.167 640,303.333 640,320L640,340L720,340C725.333,340 730,342 734,346C738,350 740,354.667 740,360C740,365.333 738,370 734,374C730,378 725.333,380 720,380L640,380L640,440L720,440C725.333,440 730,442 734,446C738,450 740,454.667 740,460C740,465.333 738,470 734,474C730,478 725.333,480 720,480L640,480L640,540L720,540C725.333,540 730,542 734,546C738,550 740,554.667 740,560C740,565.333 738,570 734,574C730,578 725.333,580 720,580L640,580L640,660L780,660C785.333,660 790,658 794,654C798,650 800,645.333 800,640L800,140C800,134.667 798,130 794,126ZM594,306C590,302 585.333,300 580,300L180,300C174.667,300 170,302 166,306C162,310 160,314.667 160,320L160,820C160,825.333 162,830 166,834C170,838 174.667,840 180,840L580,840C585.333,840 590,838 594,834C598,830 600,825.333 600,820L600,320C600,314.667 598,310 594,306ZM822.5,97.5C834.167,109.167 840,123.333 840,140L840,640C840,656.667 834.167,670.833 822.5,682.5C810.833,694.167 796.667,700 780,700L640,700L640,820C640,836.667 634.167,850.833 622.5,862.5C610.833,874.167 596.667,880 580,880L180,880C163.333,880 149.167,874.167 137.5,862.5C125.833,850.833 120,836.667 120,820L120,320C120,303.333 125.833,289.167 137.5,277.5C149.167,265.833 163.333,260 180,260L320,260L320,140C320,123.333 325.833,109.167 337.5,97.5C349.167,85.833 363.333,80 380,80L780,80C796.667,80 810.833,85.833 822.5,97.5Z" style="fill:white;fill-rule:nonzero;"/>
            </g>
        </g>
    </g>
    <g transform="matrix(0.419819,0,0,0.419819,0.77357,41.0943)">
        <text x="11.909px" y="47.363px" style="font-family:'SourceSansPro-Regular', 'Source Sans Pro', sans-serif;font-size:20px;fill:white;">Copy Articula<tspan x="122.929px " y="47.363px ">t</tspan>ion</text>
    </g>
</svg>
