<?xml version="1.0" standalone="no"?>
<!DOCTYPE svg PUBLIC "-//W3C//DTD SVG 1.1//EN" "http://www.w3.org/Graphics/SVG/1.1/DTD/svg11.dtd" >
<svg xmlns="http://www.w3.org/2000/svg" xmlns:xlink="http://www.w3.org/1999/xlink" version="1.1" viewBox="-10 0 970 960">
   <path fill="currentColor"
d="M534 726q6 6 6 14t-6 14t-14 6h-280q-8 0 -14 -6t-6 -14t6 -14t14 -6h280q8 0 14 6zM534 626q6 6 6 14t-6 14t-14 6h-280q-8 0 -14 -6t-6 -14t6 -14t14 -6h280q8 0 14 6zM534 526q6 6 6 14t-6 14t-14 6h-280q-8 0 -14 -6t-6 -14t6 -14t14 -6h280q8 0 14 6zM794 126
q-6 -6 -14 -6h-400q-8 0 -14 6t-6 14v120h220q25 0 42.5 17.5t17.5 42.5v20h80q8 0 14 6t6 14t-6 14t-14 6h-80v60h80q8 0 14 6t6 14t-6 14t-14 6h-80v60h80q8 0 14 6t6 14t-6 14t-14 6h-80v80h140q8 0 14 -6t6 -14v-500q0 -8 -6 -14zM594 306q-6 -6 -14 -6h-400q-8 0 -14 6
t-6 14v500q0 8 6 14t14 6h400q8 0 14 -6t6 -14v-500q0 -8 -6 -14zM822.5 97.5q17.5 17.5 17.5 42.5v500q0 25 -17.5 42.5t-42.5 17.5h-140v120q0 25 -17.5 42.5t-42.5 17.5h-400q-25 0 -42.5 -17.5t-17.5 -42.5v-500q0 -25 17.5 -42.5t42.5 -17.5h140v-120q0 -25 17.5 -42.5
t42.5 -17.5h400q25 0 42.5 17.5z" />
</svg>
