<?xml version="1.0" encoding="UTF-8" standalone="no"?>
<!DOCTYPE svg PUBLIC "-//W3C//DTD SVG 1.1//EN" "http://www.w3.org/Graphics/SVG/1.1/DTD/svg11.dtd">
<svg width="100%" height="100%" viewBox="0 0 72 72" version="1.1" xmlns="http://www.w3.org/2000/svg" xmlns:xlink="http://www.w3.org/1999/xlink" xml:space="preserve" xmlns:serif="http://www.serif.com/" style="fill-rule:evenodd;clip-rule:evenodd;stroke-linejoin:round;stroke-miterlimit:2;">
    <rect x="0" y="0" width="72" height="72" style="fill:rgb(102,7,52);"/>
    <g id="paste.svg" transform="matrix(0.0371134,0,0,0.0371134,36,27.0278)">
        <g transform="matrix(1,0,0,1,-485,-480)">
            <g transform="matrix(1,0,0,1,10,0)">
                <path d="M137.5,862.5C125.833,850.833 120,836.667 120,820L120,320C120,303.333 125.833,289.167 137.5,277.5C149.167,265.833 163.333,260 180,260L320,260L320,140C320,123.333 325.833,109.167 337.5,97.5C349.167,85.833 363.333,80 380,80L780,80C796.667,80 810.833,85.833 822.5,97.5C834.167,109.167 840,123.333 840,140L840,640C840,656.667 834.167,670.833 822.5,682.5C810.833,694.167 796.667,700 780,700L640,700L640,820C640,836.667 634.167,850.833 622.5,862.5C610.833,874.167 596.667,880 580,880L180,880C163.333,880 149.167,874.167 137.5,862.5ZM166,834C170,838 174.667,840 180,840L580,840C585.333,840 590,838 594,834C598,830 600,825.333 600,820L600,320C600,314.667 598,310 594,306C590,302 585.333,300 580,300L180,300C174.667,300 170,302 166,306C162,310 160,314.667 160,320L160,820C160,825.333 162,830 166,834ZM226,726C230,722 234.667,720 240,720L520,720C525.333,720 530,722 534,726C538,730 540,734.667 540,740C540,745.333 538,750 534,754C530,758 525.333,760 520,760L240,760C234.667,760 230,758 226,754C222,750 220,745.333 220,740C220,734.667 222,730 226,726ZM226,626C230,622 234.667,620 240,620L520,620C525.333,620 530,622 534,626C538,630 540,634.667 540,640C540,645.333 538,650 534,654C530,658 525.333,660 520,660L240,660C234.667,660 230,658 226,654C222,650 220,645.333 220,640C220,634.667 222,630 226,626ZM226,526C230,522 234.667,520 240,520L520,520C525.333,520 530,522 534,526C538,530 540,534.667 540,540C540,545.333 538,550 534,554C530,558 525.333,560 520,560L240,560C234.667,560 230,558 226,554C222,550 220,545.333 220,540C220,534.667 222,530 226,526ZM469,191.5C475,197.167 482.333,200 491,200L670,200C678.667,200 685.833,197 691.5,191C697.167,185 700,177.667 700,169C700,161 697,154.167 691,148.5C685,142.833 677.667,140 669,140L490,140C481.333,140 474.167,143 468.5,149C462.833,155 460,162.333 460,171C460,179 463,185.833 469,191.5Z" style="fill:white;fill-rule:nonzero;"/>
            </g>
        </g>
    </g>
    <g transform="matrix(0.419819,0,0,0.419819,0.131247,41.0943)">
        <text x="11.909px" y="47.363px" style="font-family:'SourceSansPro-Regular', 'Source Sans Pro', sans-serif;font-size:20px;fill:white;">P<tspan x="22.369px 32.449px 40.429px 46.909px " y="47.363px 47.363px 47.363px 47.363px ">aste</tspan> Articula<tspan x="125.229px " y="47.363px ">t</tspan>ion</text>
    </g>
</svg>
