<?xml version="1.0" encoding="UTF-8" standalone="no"?>
<!DOCTYPE svg PUBLIC "-//W3C//DTD SVG 1.1//EN" "http://www.w3.org/Graphics/SVG/1.1/DTD/svg11.dtd">
<svg width="100%" height="100%" viewBox="0 0 72 72" version="1.1" xmlns="http://www.w3.org/2000/svg" xmlns:xlink="http://www.w3.org/1999/xlink" xml:space="preserve" xmlns:serif="http://www.serif.com/" style="fill-rule:evenodd;clip-rule:evenodd;stroke-linejoin:round;stroke-miterlimit:2;">
    <rect x="0" y="0" width="72" height="72" style="fill:rgb(38,181,94);"/>
    <g transform="matrix(0.863033,0,0,0.863033,13.3,40.3)">
        <g transform="matrix(23.1741,0,0,23.1741,0,0)">
            <path d="M0.372,-0.119C0.317,-0.061 0.264,-0.032 0.215,-0.032C0.147,-0.032 0.108,-0.075 0.108,-0.143C0.108,-0.205 0.128,-0.265 0.169,-0.323C0.214,-0.386 0.266,-0.418 0.325,-0.418C0.357,-0.418 0.373,-0.409 0.373,-0.39C0.373,-0.385 0.367,-0.378 0.355,-0.367C0.344,-0.357 0.338,-0.345 0.338,-0.332C0.338,-0.309 0.35,-0.297 0.373,-0.297C0.405,-0.297 0.425,-0.332 0.425,-0.367C0.425,-0.393 0.413,-0.413 0.389,-0.426C0.37,-0.437 0.346,-0.442 0.318,-0.442C0.246,-0.442 0.179,-0.409 0.118,-0.344C0.057,-0.279 0.027,-0.209 0.027,-0.133C0.027,-0.044 0.084,0.012 0.173,0.012C0.251,0.012 0.322,-0.028 0.386,-0.107L0.372,-0.119Z" style="fill:white;fill-rule:nonzero;"/>
        </g>
        <g transform="matrix(23.1741,0,0,23.1741,10.2893,0)">
            <path d="M0.092,-0L0.106,-0.055C0.123,-0.123 0.158,-0.194 0.211,-0.269C0.258,-0.334 0.288,-0.367 0.302,-0.367C0.313,-0.367 0.32,-0.359 0.323,-0.344C0.326,-0.329 0.336,-0.321 0.351,-0.321C0.367,-0.321 0.38,-0.331 0.39,-0.352C0.397,-0.369 0.401,-0.386 0.401,-0.404C0.401,-0.429 0.39,-0.442 0.367,-0.442C0.336,-0.442 0.295,-0.41 0.243,-0.347C0.204,-0.298 0.169,-0.245 0.146,-0.202L0.219,-0.442L0.209,-0.442L0.05,-0.415L0.05,-0.396C0.063,-0.399 0.073,-0.4 0.08,-0.4C0.108,-0.4 0.122,-0.391 0.122,-0.373C0.122,-0.368 0.115,-0.341 0.101,-0.291L0.019,-0L0.092,-0Z" style="fill:white;fill-rule:nonzero;"/>
        </g>
        <g transform="matrix(23.1741,0,0,23.1741,19.304,0)">
            <path d="M0.383,-0.117C0.348,-0.09 0.321,-0.071 0.303,-0.062C0.275,-0.047 0.248,-0.039 0.222,-0.039C0.162,-0.039 0.113,-0.083 0.113,-0.143C0.113,-0.154 0.114,-0.167 0.117,-0.183C0.201,-0.191 0.272,-0.211 0.33,-0.242C0.395,-0.277 0.428,-0.32 0.428,-0.37C0.428,-0.418 0.393,-0.442 0.324,-0.442C0.25,-0.442 0.182,-0.409 0.121,-0.344C0.06,-0.279 0.029,-0.209 0.029,-0.134C0.029,-0.103 0.038,-0.074 0.056,-0.047C0.082,-0.008 0.12,0.012 0.171,0.012C0.242,0.012 0.316,-0.026 0.393,-0.103L0.383,-0.117ZM0.121,-0.208C0.13,-0.257 0.152,-0.302 0.185,-0.345C0.224,-0.394 0.265,-0.418 0.309,-0.418C0.342,-0.418 0.358,-0.402 0.358,-0.371C0.358,-0.339 0.34,-0.308 0.304,-0.277C0.259,-0.24 0.198,-0.217 0.121,-0.208Z" style="fill:white;fill-rule:nonzero;"/>
        </g>
        <g transform="matrix(23.1741,0,0,23.1741,29.5933,0)">
            <path d="M0.347,-0.442C0.338,-0.427 0.325,-0.419 0.314,-0.419C0.304,-0.419 0.294,-0.423 0.271,-0.43C0.248,-0.438 0.23,-0.442 0.216,-0.442C0.183,-0.442 0.154,-0.431 0.13,-0.41C0.106,-0.389 0.094,-0.363 0.094,-0.33C0.094,-0.297 0.116,-0.254 0.161,-0.201C0.206,-0.148 0.228,-0.108 0.228,-0.081C0.228,-0.04 0.192,-0.012 0.149,-0.012C0.077,-0.012 0.041,-0.057 0.041,-0.147L0.023,-0.147L-0.007,0.012L0.011,0.012C0.016,-0.003 0.028,-0.011 0.045,-0.011C0.048,-0.011 0.061,-0.007 0.083,-0C0.105,0.008 0.128,0.012 0.152,0.012C0.189,0.012 0.223,-0 0.253,-0.024C0.284,-0.049 0.299,-0.079 0.299,-0.116C0.299,-0.147 0.282,-0.189 0.263,-0.212L0.196,-0.291C0.172,-0.319 0.16,-0.342 0.16,-0.359C0.16,-0.394 0.189,-0.418 0.225,-0.418C0.256,-0.418 0.28,-0.404 0.297,-0.377C0.31,-0.355 0.317,-0.328 0.317,-0.298L0.317,-0.292L0.335,-0.292L0.365,-0.442L0.347,-0.442Z" style="fill:white;fill-rule:nonzero;"/>
        </g>
        <g transform="matrix(23.1741,0,0,23.1741,38.608,0)">
            <path d="M0.372,-0.119C0.317,-0.061 0.264,-0.032 0.215,-0.032C0.147,-0.032 0.108,-0.075 0.108,-0.143C0.108,-0.205 0.128,-0.265 0.169,-0.323C0.214,-0.386 0.266,-0.418 0.325,-0.418C0.357,-0.418 0.373,-0.409 0.373,-0.39C0.373,-0.385 0.367,-0.378 0.355,-0.367C0.344,-0.357 0.338,-0.345 0.338,-0.332C0.338,-0.309 0.35,-0.297 0.373,-0.297C0.405,-0.297 0.425,-0.332 0.425,-0.367C0.425,-0.393 0.413,-0.413 0.389,-0.426C0.37,-0.437 0.346,-0.442 0.318,-0.442C0.246,-0.442 0.179,-0.409 0.118,-0.344C0.057,-0.279 0.027,-0.209 0.027,-0.133C0.027,-0.044 0.084,0.012 0.173,0.012C0.251,0.012 0.322,-0.028 0.386,-0.107L0.372,-0.119Z" style="fill:white;fill-rule:nonzero;"/>
        </g>
        <g transform="matrix(23.1741,0,0,23.1741,48.8973,0)">
            <path d="M0.083,0.012C0.111,0.012 0.133,-0.01 0.133,-0.038C0.133,-0.066 0.111,-0.088 0.083,-0.088C0.055,-0.088 0.033,-0.066 0.033,-0.038C0.033,-0.01 0.055,0.012 0.083,0.012Z" style="fill:white;fill-rule:nonzero;"/>
        </g>
    </g>
</svg>
