<?xml version="1.0" encoding="UTF-8" standalone="no"?>
<!DOCTYPE svg PUBLIC "-//W3C//DTD SVG 1.1//EN" "http://www.w3.org/Graphics/SVG/1.1/DTD/svg11.dtd">
<svg width="100%" height="100%" viewBox="0 0 72 72" version="1.1" xmlns="http://www.w3.org/2000/svg" xmlns:xlink="http://www.w3.org/1999/xlink" xml:space="preserve" xmlns:serif="http://www.serif.com/" style="fill-rule:evenodd;clip-rule:evenodd;stroke-linejoin:round;stroke-miterlimit:2;">
    <rect x="0" y="0" width="72" height="72" style="fill:rgb(38,181,94);"/>
    <g transform="matrix(0.863033,0,0,0.863033,19.48,42.82)">
        <g transform="matrix(23.1741,0,0,23.1741,0,0)">
            <path d="M0.531,-0.694L0.372,-0.667L0.372,-0.648C0.385,-0.651 0.395,-0.652 0.402,-0.652C0.43,-0.652 0.444,-0.643 0.444,-0.625C0.444,-0.62 0.437,-0.592 0.423,-0.543L0.381,-0.396C0.36,-0.427 0.333,-0.442 0.3,-0.442C0.237,-0.442 0.175,-0.405 0.112,-0.332C0.05,-0.259 0.019,-0.186 0.019,-0.114C0.019,-0.083 0.026,-0.055 0.041,-0.031C0.058,-0.002 0.081,0.012 0.11,0.012C0.172,0.012 0.243,-0.053 0.318,-0.174C0.297,-0.103 0.283,-0.053 0.283,-0.034C0.283,-0.003 0.296,0.012 0.322,0.012C0.359,0.012 0.404,-0.025 0.459,-0.098L0.443,-0.108C0.406,-0.065 0.382,-0.043 0.372,-0.043C0.364,-0.043 0.36,-0.049 0.36,-0.06C0.36,-0.068 0.363,-0.083 0.37,-0.106L0.541,-0.694L0.531,-0.694ZM0.36,-0.347C0.36,-0.298 0.336,-0.236 0.287,-0.162C0.236,-0.085 0.192,-0.046 0.153,-0.046C0.135,-0.046 0.121,-0.055 0.112,-0.072C0.104,-0.087 0.1,-0.104 0.1,-0.123C0.1,-0.18 0.121,-0.242 0.163,-0.31C0.208,-0.382 0.252,-0.418 0.297,-0.418C0.336,-0.418 0.36,-0.387 0.36,-0.347Z" style="fill:white;fill-rule:nonzero;"/>
        </g>
        <g transform="matrix(23.1741,0,0,23.1741,11.587,0)">
            <path d="M0.218,-0.442L0.059,-0.415L0.059,-0.396C0.072,-0.399 0.082,-0.4 0.089,-0.4C0.117,-0.4 0.131,-0.391 0.131,-0.373C0.131,-0.368 0.124,-0.341 0.11,-0.291L0.057,-0.102C0.046,-0.064 0.041,-0.041 0.041,-0.034C0.041,-0.003 0.057,0.012 0.088,0.012C0.111,0.012 0.138,-0.002 0.167,-0.029C0.19,-0.05 0.21,-0.073 0.228,-0.1L0.211,-0.111C0.178,-0.066 0.153,-0.043 0.136,-0.043C0.127,-0.043 0.122,-0.047 0.122,-0.056C0.122,-0.061 0.124,-0.071 0.129,-0.088L0.228,-0.442L0.218,-0.442ZM0.171,-0.587C0.171,-0.56 0.193,-0.538 0.22,-0.538C0.247,-0.538 0.269,-0.56 0.269,-0.587C0.269,-0.614 0.247,-0.636 0.22,-0.636C0.193,-0.636 0.171,-0.614 0.171,-0.587Z" style="fill:white;fill-rule:nonzero;"/>
        </g>
        <g transform="matrix(23.1741,0,0,23.1741,18.0294,0)">
            <path d="M0.209,-0.442L0.05,-0.415L0.05,-0.396C0.063,-0.399 0.073,-0.4 0.08,-0.4C0.108,-0.4 0.122,-0.391 0.122,-0.373C0.122,-0.368 0.115,-0.341 0.101,-0.291L0.019,-0L0.092,-0L0.106,-0.051C0.128,-0.13 0.163,-0.206 0.212,-0.279C0.259,-0.349 0.297,-0.384 0.324,-0.384C0.341,-0.384 0.349,-0.375 0.349,-0.358C0.349,-0.349 0.343,-0.324 0.332,-0.284L0.252,-0L0.325,-0L0.351,-0.08C0.37,-0.139 0.402,-0.202 0.447,-0.271C0.496,-0.346 0.536,-0.384 0.565,-0.384C0.58,-0.384 0.588,-0.376 0.588,-0.359C0.588,-0.347 0.575,-0.296 0.549,-0.207C0.519,-0.104 0.504,-0.045 0.504,-0.03C0.504,-0.002 0.518,0.012 0.546,0.012C0.567,0.012 0.592,-0.001 0.621,-0.028C0.645,-0.05 0.665,-0.074 0.68,-0.1L0.664,-0.109C0.633,-0.065 0.609,-0.043 0.594,-0.043C0.585,-0.043 0.581,-0.048 0.581,-0.058C0.581,-0.061 0.593,-0.1 0.615,-0.175C0.616,-0.18 0.617,-0.185 0.619,-0.19L0.649,-0.285C0.662,-0.325 0.666,-0.358 0.666,-0.383C0.666,-0.416 0.643,-0.442 0.61,-0.442C0.546,-0.442 0.469,-0.36 0.383,-0.201L0.414,-0.312C0.423,-0.344 0.428,-0.368 0.428,-0.385C0.428,-0.417 0.405,-0.442 0.373,-0.442C0.305,-0.442 0.23,-0.366 0.155,-0.222L0.219,-0.442L0.209,-0.442Z" style="fill:white;fill-rule:nonzero;"/>
        </g>
        <g transform="matrix(23.1741,0,0,23.1741,34.7611,0)">
            <path d="M0.083,0.012C0.111,0.012 0.133,-0.01 0.133,-0.038C0.133,-0.066 0.111,-0.088 0.083,-0.088C0.055,-0.088 0.033,-0.066 0.033,-0.038C0.033,-0.01 0.055,0.012 0.083,0.012Z" style="fill:white;fill-rule:nonzero;"/>
        </g>
    </g>
</svg>
